<svg xmlns="http://www.w3.org/2000/svg" width="298" height="96" viewBox="0 0 298 96" fill="none">
<path d="M44.1154 54.287C44.3031 54.287 44.4782 54.2745 44.6534 54.262V60.0047H44.8536V54.262C45.2289 54.2369 45.6042 54.1869 45.9796 54.1118C47.1682 53.8741 48.3067 53.4112 49.3076 52.7606L48.8697 52.085C48.0565 52.8982 47.0806 53.4988 45.9796 53.8241C45.6168 53.9241 45.2414 53.9992 44.8536 54.0367V43.94L52.1727 55.0877H52.3979L59.4293 42.8641V55.4255C60.718 54.2494 61.4437 52.5854 61.4437 50.8338V42.1009H59.6546L53.1361 53.4237L45.7919 42.1009H43.6399L44.6409 43.6398V54.0493C44.4657 54.0618 44.2905 54.0868 44.1029 54.0868C43.9027 54.0868 43.715 54.0743 43.5273 54.0618C39.3736 53.724 36.6836 49.6703 36.6836 45.1662C36.6836 40.4368 39.6238 36.2455 44.1029 36.2455C48.5569 36.2455 51.5221 40.4368 51.5221 45.1662C51.5221 46.2171 51.372 47.2556 51.0842 48.2189L52.1977 49.933C53.1236 48.5442 53.6741 46.9178 53.6741 45.1662C53.6741 40.099 49.145 36.0078 44.1029 36.0078C39.0483 36.0078 34.5316 40.099 34.5316 45.1662C34.5316 50.0081 38.6979 53.9867 43.5148 54.2745C43.7275 54.2745 43.9152 54.287 44.1154 54.287Z" fill="#E5E3DC"/>
<path d="M48.5067 0H48.0063C37.7344 0 28.2007 3.22794 20.3936 8.73296C20.256 8.83305 20.1183 8.92063 19.9932 9.00821C7.88219 17.7287 0 31.9416 0 47.9937C0 61.0807 5.25479 72.9665 13.75 81.6244C22.4705 90.495 34.594 96 48.0063 96H48.3816C48.7194 96 49.0697 95.9875 49.42 95.975C49.8204 95.975 50.2333 95.95 50.6337 95.9249C54.7124 95.6497 58.7035 94.6363 61.944 92.3967C63.2326 91.5334 64.4087 90.4575 65.4096 89.1688C67.0361 89.369 68.6376 89.2689 70.1765 88.906H70.189C74.2552 88.0052 77.9461 85.4529 81.0113 82.6879C82.6003 81.2491 84.0766 79.6976 85.4279 78.0587C85.5405 77.921 85.6656 77.7834 85.7657 77.6333C92.184 69.4758 96 59.1789 96 47.9937C96 21.6447 74.7932 0.275251 48.5067 0ZM78.8469 82.838C75.1935 85.8908 70.9772 88.2054 67.0236 87.9051C66.2604 87.8426 65.5347 87.4797 64.7715 87.5673C64.5338 87.6424 63.7081 88.9186 63.4203 89.2313C60.5302 92.3967 56.2638 93.9106 51.6346 94.386C51.6221 94.3735 51.6096 94.3735 51.5845 94.386C50.5336 94.4611 49.4701 94.5112 48.3941 94.5112C47.9437 94.5112 47.4933 94.5237 47.0429 94.5112C33.6307 94.2359 21.6072 88.293 13.2871 78.972C5.94292 70.752 1.47635 59.8921 1.47635 47.9937C1.47635 36.746 5.45497 26.4366 12.0985 18.3918C12.1486 18.3042 12.2236 18.2291 12.2987 18.154C21.0942 8.04483 33.7808 2.1895 47.4933 1.6515C49.6578 1.56393 51.8097 1.62648 53.9367 1.83918C53.9492 1.83918 53.9492 1.83918 53.9617 1.83918C76.845 4.76684 94.5362 24.3097 94.5362 47.9937C94.5362 61.6437 88.6558 73.9299 79.2973 82.4376C79.1471 82.5753 78.997 82.7004 78.8469 82.838Z" fill="#E5E3DC"/>
<path d="M84.0642 64.9716L82.9132 64.859C82.9882 71.7403 79.8354 79.1721 73.3169 82.1373C78.1588 77.5456 81.7621 70.4641 79.3349 63.733L78.1213 63.4202C79.485 67.4364 78.7218 71.9154 77.0203 75.7064C75.5565 78.9719 72.3786 82.8629 68.5125 82.988C70.677 81.2615 71.8906 79.5849 70.8897 76.7198C68.3374 69.4507 57.54 74.1049 52.4604 75.0308C49.0323 75.6564 45.5416 75.8065 42.0885 75.2685C36.7711 74.4427 29.1141 71.3399 25.6735 67.0735C22.5456 63.2075 20.8941 56.5765 23.7467 52.1349C23.3464 51.8346 22.1703 53.6238 22.0076 53.9366C19.7931 57.9277 21.4196 62.0064 23.3714 65.6597C23.4214 65.7473 24.1846 66.7482 23.6967 66.5355C23.6341 66.5105 22.8584 65.8099 22.7333 65.6973C19.8307 62.9072 17.2909 58.2155 17.5161 54.1117C17.6287 51.9222 18.4544 50.1956 19.7931 48.4941C19.4553 47.5683 18.029 48.1313 17.7663 48.0062C17.3284 47.7809 17.5286 46.9802 16.5026 47.0928C15.9646 47.1554 15.9396 47.9936 15.8645 48.4941C15.1389 53.0983 16.5151 58.8285 18.9674 62.7571C21.1444 66.2478 24.1846 68.4748 27.4876 70.8019L25.1105 69.9387C21.0943 68.2997 16.7278 69.9261 17.5286 74.8306C17.7788 75.7189 18.1041 76.2194 18.1041 76.2194C18.1041 76.2194 16.1773 70.1013 27.6628 71.953C32.83 73.6045 37.8096 76.407 43.277 76.9826C47.3182 77.408 51.3719 76.6948 55.2004 75.4437C55.263 75.7564 55.1378 75.6564 54.9627 75.7439C50.4336 78.1837 48.5944 80.3606 42.9267 79.2471C40.5871 78.7967 36.8211 77.0076 34.6317 78.0961C34.2813 78.2712 33.9686 78.4839 33.956 78.9218H36.4208C37.0589 78.9218 39.1232 79.7851 39.9115 79.9978C47.2306 81.9871 48.5694 80.1605 54.3747 76.5947C57.9154 74.4177 63.4454 72.4284 67.4115 74.5804C70.7271 76.3695 70.8272 81.4491 67.0362 82.5251C66.4356 82.7003 65.6474 82.6252 65.1345 82.7753C65.0219 82.8129 64.9093 82.9255 64.9343 83.0506C68.5626 85.5654 73.417 84.089 76.6324 81.5492C81.4493 77.7333 84.2769 71.0897 84.0642 64.9716Z" fill="#E5E3DC"/>
<path d="M56.5142 79.7477C56.6268 79.8603 57.1397 79.3473 57.3274 79.2973C58.1156 79.0846 58.541 79.7352 58.3784 80.4734C58.0656 81.9497 54.9627 83.1758 53.6365 83.5261C44.1654 86.0159 31.2661 80.5484 23.7593 74.8682C23.1963 74.4429 22.2579 73.442 21.745 73.1542C21.5823 73.0666 21.3946 72.9415 21.2195 73.0791L21.282 73.5045C29.3019 81.0864 41.7507 87.0794 53.011 84.5771C56.314 83.8389 57.4275 83.2259 59.4794 80.611C59.5544 80.5109 59.4794 80.3858 59.7546 80.4608C60.693 83.1633 57.5151 84.965 55.4382 85.8032C44.6283 90.1572 30.7156 83.8514 22.1453 77.2204C21.8075 76.9577 20.2311 75.4938 19.9809 75.5439C19.7557 75.7065 19.7306 75.8942 19.9058 76.0944C28.4886 83.7388 41.3503 90.4449 53.1611 87.6049C56.5892 86.7791 62.7448 84.2018 60.6179 79.6601L59.642 78.4215C64.5715 80.2106 62.0317 85.1026 58.8413 87.2796C47.9564 94.7113 29.1767 86.9292 20.106 79.3723C9.00836 70.1389 1.52654 54.1744 5.73037 39.6737C5.96808 38.8729 6.78133 37.2089 6.84388 36.5708C6.88142 36.1705 6.73128 35.7201 6.58114 35.3572L6.2058 35.2446C6.01813 35.2822 5.88051 35.3823 5.78041 35.5324C5.5427 35.8827 5.11731 37.2214 4.96717 37.7094C1.27631 49.0322 4.20398 61.7438 10.9601 71.2524C19.2802 82.9756 35.47 92.209 50.1208 91.2582C55.3381 90.9204 63.9334 87.6049 63.3704 81.1365C62.9701 76.9702 57.7278 75.1185 56.5142 79.7477Z" fill="#E5E3DC"/>
<path d="M13.0243 24.6602C13.3621 24.4725 15.0887 22.0578 15.5391 21.5323C20.5562 15.727 32.3169 5.88056 40.4368 10.5598C45.3162 13.3749 41.7255 18.6797 43.427 23.1713C46.9427 32.4798 57.5024 23.8594 62.0815 31.6415L62.8948 33.2805C63.1075 30.5531 60.7428 28.0257 58.2155 27.3376C54.1243 26.2241 49.933 28.0633 46.2671 24.998C40.8247 20.4313 47.7184 13.0746 40.7246 9.29618C32.0917 4.62942 19.9932 14.1881 14.5882 20.4313C14.1879 20.8942 11.6481 24.0346 11.6481 24.3349C11.623 24.8979 12.6615 24.8729 13.0243 24.6602Z" fill="#E5E3DC"/>
<path d="M69.4385 10.7099C79.6978 15.3266 87.53 25.4983 89.3692 36.6335C89.9322 40.0241 89.8196 43.2645 89.4067 46.6802C89.4067 47.1306 90.3576 47.043 90.5828 46.8303C90.8205 46.6176 90.9456 45.4916 90.9706 45.1162C91.9465 31.5414 84.4146 17.8163 72.6414 11.1227C71.8782 10.6848 67.299 8.3327 66.736 8.83316C66.6484 9.14594 66.5358 9.48375 66.8486 9.70895C67.2365 9.99672 68.8504 10.4471 69.4385 10.7099Z" fill="#E5E3DC"/>
<path d="M44.2777 68.6377C52.8355 71.0649 63.7455 66.2605 68.7375 59.129C69.0628 58.6536 70.952 55.6259 70.5642 55.2505C70.389 55.263 70.1388 55.188 69.9887 55.2755C69.8635 55.3506 68.6624 57.4275 68.3872 57.8028C63.733 64.1211 56.0259 68.7753 47.9436 68.3249C45.166 68.1748 38.9854 66.6734 39.636 62.895C39.8487 61.6563 40.8871 61.1684 41.6003 60.2926V60.0424C40.4993 59.1666 38.6851 61.2685 38.535 62.2694C38.0095 65.6725 41.4752 67.8495 44.2777 68.6377Z" fill="#E5E3DC"/>
<path d="M53.0355 65.3969C65.1465 61.9563 74.0171 47.9435 69.5756 35.5947L68.5121 35.6448C73.6543 49.107 62.4566 63.1699 49.3196 65.6471C47.8558 65.9224 46.7548 65.8848 45.2909 65.9474C45.1408 65.9599 44.8405 65.8598 44.8781 66.06C47.593 66.5104 50.4081 66.1476 53.0355 65.3969Z" fill="#E5E3DC"/>
<path d="M44.3406 63.1825C43.6399 63.1325 41.9509 62.5444 41.5755 62.5819C40.3619 62.7196 42.5639 63.6079 42.8767 63.683C51.2469 65.8224 61.4436 58.9411 65.0845 51.647C66.8861 48.0437 67.7244 42.7389 66.7985 38.7978C66.711 38.4099 66.5358 37.7468 66.2355 37.4966C66.248 37.7218 66.3481 37.9095 66.3606 38.1472C66.5608 42.5637 66.0854 47.4682 64.021 51.4218C60.6054 57.9527 51.8849 63.758 44.3406 63.1825Z" fill="#E5E3DC"/>
<path d="M40.3246 70.189C49.0575 75.719 60.568 71.5402 67.9748 65.6974C69.4386 64.5464 70.8649 62.8949 72.3162 61.8814C73.0169 61.3935 73.6049 61.0432 74.5183 61.1433C72.4414 59.0163 70.5772 61.994 69.1759 63.3077C62.2696 69.8137 49.9208 74.6931 40.9502 69.6885C40.5998 69.5009 39.0484 68.3498 38.8733 68.4624C38.5104 69.1255 39.7991 69.8637 40.3246 70.189Z" fill="#E5E3DC"/>
<path d="M67.6493 12.6738C66.5983 13.4996 68.6252 13.975 69.2257 14.2878C80.4735 20.1932 86.5915 32.2292 85.6907 44.8782C85.7157 45.2035 86.1286 45.4412 86.4164 45.2535C86.5665 45.0408 86.6291 44.7781 86.6541 44.5279C87.0044 41.0372 86.2537 35.6197 85.2778 32.2292C82.8131 23.6964 75.9944 15.8017 67.6493 12.6738Z" fill="#E5E3DC"/>
<path d="M14.2756 43.0143C12.9119 41.2127 12.0987 38.5102 12.3739 36.2457C12.4365 35.6702 13.0245 34.5316 12.9119 34.1312C12.8618 33.9436 11.7734 32.3546 11.5732 32.1044C11.0602 31.4663 10.0593 30.5155 9.24605 30.3403C8.34523 30.1526 7.94487 30.2277 7.80724 31.2036C7.55701 33.0428 8.22012 35.8578 9.00834 37.5344C10.0593 39.7739 12.0236 41.9634 14.2756 43.0143Z" fill="#E5E3DC"/>
<path d="M16.0398 43.5897C16.1148 43.7023 16.0273 43.8024 16.3025 43.7399C16.4652 41.5754 17.929 40.0991 18.8924 38.3475C19.3928 37.4341 20.0184 36.233 19.6055 35.2196C19.2052 34.2187 18.6171 34.5065 17.929 34.0185C17.366 33.6307 17.1158 32.8925 16.6028 32.4546C14.7636 34.1561 13.55 36.3957 14.0505 38.9605C14.2757 40.0365 15.4392 42.6639 16.0398 43.5897Z" fill="#E5E3DC"/>
<path d="M39.2357 22.4956C38.8854 19.2176 36.1704 15.6644 32.5796 16.0147C30.4777 16.2149 27.012 18.9674 25.4356 20.3937C24.9602 20.8191 23.0209 22.6332 22.7957 23.0336C22.6456 23.2838 22.583 23.5215 22.8708 23.6842L23.2711 23.6341C26.2864 20.7315 33.7932 12.7492 37.0337 19.4678C38.0221 21.5197 38.1722 23.8844 37.2839 25.9988C36.5582 27.7379 34.7066 29.2017 34.9693 31.2536C35.8951 29.8398 37.359 28.8889 38.2473 27.4501C38.9855 26.249 39.2482 25.0729 39.4108 23.6842L42.6263 23.0211L42.4386 21.9326L39.2357 22.4956Z" fill="#E5E3DC"/>
<path d="M57.5403 7.71979C56.6269 6.60627 55.9763 6.20591 54.9004 7.38198C53.0862 9.37129 52.811 12.5992 54.3749 14.8138C56.8146 14.6261 58.8164 11.811 59.2418 9.57148C59.5296 8.0576 59.4045 6.39358 57.5403 7.71979Z" fill="#E5E3DC"/>
<path d="M39.2736 13.6374C33.193 9.17083 23.4842 17.4033 19.493 21.7698C19.1177 22.1702 17.5037 23.9718 17.5037 24.3472C17.5037 24.8726 18.0417 25.0478 18.4296 24.7726C22.1454 20.6188 27.3126 14.9886 32.9803 13.7625C35.7829 13.1495 39.236 13.9252 40.4121 16.8153C40.5998 17.2907 40.7499 18.3167 40.9751 18.642C41.1002 18.8171 41.2504 18.6795 41.2754 18.5794C41.363 18.2291 41.2754 17.2282 41.2754 16.7778C41.2754 15.7894 40.0743 14.2254 39.2736 13.6374Z" fill="#E5E3DC"/>
<path d="M23.1584 28.7386C23.1584 27.7877 23.1209 26.5741 22.2451 25.9986C21.4819 25.8485 19.6052 28.0255 19.1798 28.651C18.892 29.0639 17.4407 31.5287 17.766 31.8539C18.2664 31.9415 18.2289 31.4161 18.6293 31.2284C19.0547 31.0282 19.7052 31.0157 20.1306 31.2284C20.3809 31.3535 20.5936 31.7288 20.8188 31.7288C21.1691 31.7413 21.4443 31.3034 22.0824 31.416C23.2335 31.6287 22.9957 32.8173 24.1843 32.8173C24.91 32.8173 24.9225 32.5296 25.2603 31.9666C26.7867 29.4267 26.8117 26.4115 23.1584 28.7386Z" fill="#E5E3DC"/>
<path d="M81.1491 61.9441C82.6004 61.5062 84.6272 59.3667 83.4011 57.8278C82.7755 57.0396 82.0624 57.6527 81.7246 57.4775C81.4368 57.3274 81.2742 56.4891 80.9989 56.1513C80.2608 55.213 78.9346 55.3005 78.1588 56.1263C76.2196 58.2282 77.3206 63.1076 81.1491 61.9441Z" fill="#E5E3DC"/>
<path d="M18.7418 45.8168C20.5935 46.5049 22.9957 45.5416 24.3094 44.1778C24.7473 43.7274 26.3863 41.663 25.01 41.5629C24.7598 41.5504 24.3719 41.7256 24.2343 41.638C24.0967 41.5629 23.9841 41.2502 23.7964 41.1125C21.6194 39.4235 18.942 41.663 18.0036 43.6899C17.4657 44.8659 17.3906 45.3164 18.7418 45.8168Z" fill="#E5E3DC"/>
<path d="M30.8408 42.6012C31.6165 41.9131 33.8185 39.2982 32.9677 38.2472C32.217 37.3339 29.5896 37.9219 28.5637 38.0971C28.5387 38.4599 28.5887 38.8353 28.5262 39.1981C28.4261 39.7611 27.9381 40.1865 27.8631 40.5743C27.6629 41.4877 28.0633 41.838 27.25 42.7138C26.6745 43.3269 26.3867 43.7147 25.8612 44.3278C25.5485 44.6906 25.1231 44.9033 24.8353 45.2912C26.9623 45.166 29.2518 44.015 30.8408 42.6012Z" fill="#E5E3DC"/>
<path d="M64.9092 29.1643C65.2345 29.5771 66.3105 31.3788 66.5232 31.5039C66.861 31.7041 67.2989 31.6791 67.3739 31.2662C67.5241 30.528 64.5839 26.9372 63.9458 26.2741C61.6437 23.8594 59.1289 22.3956 55.7258 22.1454C53.3862 21.9702 50.1708 22.1579 49.7829 25.023C50.471 24.8228 50.984 24.2848 51.7097 24.0096C56.6266 22.1078 61.994 25.3733 64.9092 29.1643Z" fill="#E5E3DC"/>
<path d="M77.5208 52.4478C76.7326 51.3218 75.4439 52.673 75.1436 52.4853C74.418 51.2342 73.5171 50.9464 73.1168 52.5979C72.6664 54.4621 73.3045 57.077 74.2678 58.7035C74.493 59.0788 76.0069 61.1182 76.4448 60.7804C75.9193 59.2915 75.9444 57.5775 76.5074 56.1011C76.9328 54.9501 78.4216 53.7365 77.5208 52.4478Z" fill="#E5E3DC"/>
<path d="M31.9167 47.4683C30.8407 47.168 29.6396 46.5175 28.5011 46.53C27.5252 46.5425 26.1239 47.2431 25.0229 47.3432C23.5841 47.4683 22.1578 47.2806 20.769 46.9929C23.4465 50.1082 29.8148 52.4353 31.9167 47.4683Z" fill="#E5E3DC"/>
<path d="M89.4564 58.7284C89.1061 58.7159 88.8684 58.9912 88.7558 58.9661C88.5556 58.9286 87.8925 57.9652 87.0918 58.0403C85.8156 58.1654 85.14 60.2924 84.4644 61.1807C83.6636 62.2316 83.0506 62.4568 81.8995 62.9323C81.7994 62.9698 81.5492 63.0324 81.6618 63.1825C84.2767 64.4086 88.4805 63.3076 89.7817 60.6302C90.0945 59.9796 90.5449 58.7534 89.4564 58.7284Z" fill="#E5E3DC"/>
<path d="M70.6646 17.7661C70.2517 17.5033 68.6002 16.5149 68.2248 16.6276L68.0247 16.9153C68.0247 17.2281 69.2383 17.666 69.5761 17.8787C74.8058 21.1567 78.4842 27.2122 79.8479 33.1676C80.0731 34.156 80.3234 36.896 80.7488 37.5466C80.8739 37.7343 81.1491 37.8969 81.2868 38.0846C81.5495 37.8969 81.4744 37.5842 81.4619 37.3089C81.1867 29.8396 77.0954 21.7447 70.6646 17.7661Z" fill="#E5E3DC"/>
<path d="M14.8758 70.9149C15.051 71.1151 15.8142 72.166 16.0769 71.9408L16.1395 71.1026C10.5719 64.8844 8.25729 56.8771 8.50752 48.5945C8.52003 48.1691 8.72021 47.7312 8.63263 47.2808C8.57007 46.9555 7.76934 46.4801 7.66925 47.0431C7.38149 48.6446 7.53163 51.247 7.66925 52.9235C8.20724 59.542 10.6094 65.8227 14.8758 70.9149Z" fill="#E5E3DC"/>
<path d="M27.0621 31.9793C26.7994 32.2045 26.0112 33.0552 25.8861 33.3305C25.6233 33.931 26.2739 34.444 26.2989 35.0821C27.1122 35.1446 27.8128 35.7077 27.9004 36.5334C27.9379 36.8087 27.6752 37.2591 28.0255 37.3717C29.2766 37.0964 31.1033 36.0079 31.6913 34.8194C32.5546 33.0678 31.5037 33.0052 29.9898 33.293C30.2901 32.5673 29.6395 31.0034 28.7512 31.0534C28.3133 31.0784 27.3999 31.679 27.0621 31.9793Z" fill="#E5E3DC"/>
<path d="M16.7651 26.8368C16.027 26.9369 15.2012 28.163 15.0636 28.138C14.3755 27.5625 14.0502 26.2613 12.9241 26.5991C12.2235 26.8118 12.3111 28.7886 12.3736 29.3766C12.4237 29.8521 13.4496 33.0425 13.7374 33.055C14.8634 32.0916 16.2772 31.4285 16.9403 30.0147C17.2281 29.3891 18.1539 26.6491 16.7651 26.8368Z" fill="#E5E3DC"/>
<path d="M12.2363 47.881C12.1737 47.5181 11.7733 47.4931 11.4731 47.6057C11.1353 47.7183 11.0477 49.057 11.0227 49.4449C10.6723 55.4378 12.5491 63.0448 16.0898 67.9117C16.29 68.187 16.9906 69.2629 17.3159 69.1879L17.6037 68.6749C14.6134 64.5962 12.6617 59.6917 12.2238 54.6121C12.1612 53.8989 12.2738 53.1733 12.0986 52.4601C11.886 51.0714 12.474 49.1696 12.2363 47.881Z" fill="#E5E3DC"/>
<path d="M72.1158 80.4607C72.4035 80.4858 72.5411 80.2105 72.6913 80.0228C74.6681 77.5581 77.5958 70.364 74.9433 67.7867C73.467 66.3354 70.7645 67.574 69.8262 69.1254C70.3391 69.1254 70.777 68.8502 71.3275 68.8251C74.2927 68.6875 74.8057 71.4776 74.5054 73.8047C74.2302 76.0317 73.2168 78.5215 72.1158 80.4607Z" fill="#E5E3DC"/>
<path d="M59.2291 13.3871C57.7778 14.0127 57.2022 15.7517 55.4381 15.6517C57.1021 17.4158 60.6679 17.078 62.6072 15.9144C63.4079 15.439 64.1336 14.9135 63.3704 14.0252C62.4946 13.0368 60.3801 12.8992 59.2291 13.3871Z" fill="#E5E3DC"/>
<path d="M47.5059 30.966C50.1083 31.529 53.0985 30.8283 54.9502 33.243L55.6633 34.857C56.5516 32.6425 54.4372 30.6157 52.4229 30.1152C50.8089 29.7148 48.9822 29.9776 47.3558 29.6648C45.1788 29.2519 43.5022 27.9883 42.3637 26.1366C42.2261 25.8989 41.7882 24.8354 41.7256 24.7979L41.3878 24.8354C42.126 28.1259 44.2154 30.2528 47.5059 30.966Z" fill="#E5E3DC"/>
<path d="M15.7142 45.6041L15.8268 45.0661C14.7007 44.7909 13.5247 44.2278 12.5488 43.6023C11.8356 43.1393 10.034 41.4253 9.47098 41.2877C7.48167 40.7622 7.01874 42.0884 8.14477 43.5647C9.88386 45.8293 13.1118 46.1671 15.7142 45.6041Z" fill="#E5E3DC"/>
<path d="M56.1012 18.0667C53.1485 19.8558 48.3816 21.4698 45.0411 22.3581L44.8034 21.4698C45.529 21.1695 48.3941 20.3688 49.0072 20.081C50.2083 19.518 51.3218 18.6297 52.1976 17.6413C52.5479 17.2284 53.4487 15.7521 53.8491 15.677C54.5748 15.5394 55.0127 16.5778 55.4381 17.0407C55.7133 17.3535 56.5641 17.7039 56.1012 18.0667Z" fill="#E5E3DC"/>
<path d="M48.4816 8.09472C48.6193 11.1725 49.7453 14.3004 53.1609 14.8133C52.5478 13.7749 52.1975 12.6864 51.9723 11.4978C51.9098 11.1725 51.9848 10.8097 51.9348 10.4594C51.7221 9.24577 49.7328 7.84449 48.4816 8.09472Z" fill="#E5E3DC"/>
<path d="M78.7595 49.2697C77.7586 49.057 76.9203 48.9694 75.9569 49.3823C75.6567 49.8202 77.4458 50.7711 77.7461 51.0088C78.2841 51.4217 78.7845 51.8971 79.2725 52.3725C80.0857 51.747 80.7238 51.0713 81.8373 51.5468C82.6005 49.6325 79.9105 46.342 78.7595 49.2697Z" fill="#E5E3DC"/>
<path d="M86.529 51.2469C86.8793 48.3567 84.0768 47.1306 81.612 47.3433C81.4744 47.4559 82.5879 48.7446 82.713 48.9448C83.0884 49.5703 83.4011 50.3335 83.5513 51.0467C84.5397 51.1343 85.2403 51.7974 86.0911 52.1477C86.3038 52.0726 86.504 51.4596 86.529 51.2469Z" fill="#E5E3DC"/>
<path d="M73.0164 48.9069C73.2541 49.2447 73.692 48.9944 73.8671 48.6566C75.0432 46.4046 75.1683 41.3875 74.7304 38.9103C74.5678 37.9844 74.2425 35.87 73.204 35.6948C74.1048 39.4232 74.305 42.7387 73.5043 46.4922C73.3917 47.0176 72.7536 48.544 73.0164 48.9069Z" fill="#E5E3DC"/>
<path d="M66.2353 19.13C70.4517 21.332 73.1166 25.1355 75.0183 29.3768C75.206 29.7897 75.744 31.5163 76.0443 31.6039C76.4071 31.7165 76.5572 31.5538 76.5697 31.2035C76.5948 30.5904 75.6564 28.4009 75.3436 27.7378C73.5045 23.9344 70.214 20.5438 66.2979 18.9048L66.2353 19.13Z" fill="#E5E3DC"/>
<path d="M89.4565 53.3364C89.0937 53.9119 88.7184 54.4999 88.2054 54.9628C89.0186 55.5759 89.1938 56.3391 88.9185 57.3025C91.3082 56.8396 92.3467 53.9244 91.4584 51.8225C90.7452 50.0959 89.8819 52.6357 89.4565 53.3364Z" fill="#E5E3DC"/>
<path d="M64.2587 20.694C64.2211 20.7065 64.021 20.8691 64.1336 20.9317C66.7234 22.2329 68.9254 24.7351 70.2641 27.2875C70.5269 27.8004 71.4527 30.3027 71.5778 30.4153C71.9031 30.7031 72.316 30.603 72.3661 30.1151C72.4912 28.8639 70.2266 25.2606 69.3508 24.2347C68.5876 23.3464 65.4473 20.4187 64.2587 20.694Z" fill="#E5E3DC"/>
<path d="M64.5838 15.3262C64.4461 15.4639 64.2084 16.1395 63.9582 16.4398C63.0073 17.5157 61.0305 18.0037 59.6418 18.0662C60.3174 18.6418 61.7186 18.7293 62.5694 18.6543C63.5578 18.5667 65.397 17.7284 66.1852 17.1029C68.3247 15.3888 65.347 14.6006 64.5838 15.3262Z" fill="#E5E3DC"/>
<path d="M39.2732 7.03139C40.149 7.31916 41.9382 6.2682 42.9516 5.99295C44.4905 5.56756 46.2171 5.35487 47.806 5.45496C48.1814 5.47998 49.9705 6.04299 49.7703 5.29231C49.6202 4.71678 47.5183 4.5166 47.0053 4.5166C44.991 4.5166 41.5628 5.25477 39.7487 6.14308C39.2983 6.3808 38.3849 6.73112 39.2732 7.03139Z" fill="#E5E3DC"/>
<path d="M62.7574 9.34612C62.795 9.59635 63.2079 9.89663 63.308 10.2469C63.408 10.5973 63.2579 10.9726 63.5457 11.2103C64.7593 10.1969 65.6601 8.67051 65.51 7.03151C64.7217 6.60613 63.8835 6.61864 63.0077 6.65617C63.2454 7.43188 62.6699 8.73306 62.7574 9.34612Z" fill="#E5E3DC"/>
<path d="M59.7047 6.40601C60.3929 7.20674 60.3803 8.29524 60.3553 9.29615C61.0059 9.0209 61.7316 8.97085 61.9818 8.22017C62.3572 7.06912 62.1945 5.35506 61.1185 4.62939L59.2793 5.94309C59.2043 6.25588 59.5171 6.19332 59.7047 6.40601Z" fill="#E5E3DC"/>
<path d="M87.8424 53.1608C87.8924 53.3359 87.7673 53.3735 88.0801 53.3359L90.2196 50.0579C89.4063 48.9569 88.0676 48.5691 86.7539 48.4189C87.5296 49.2822 87.7924 50.1956 87.7173 51.3591C87.6923 51.6594 87.4921 51.9597 87.5046 52.1849C87.5171 52.285 87.7673 52.9356 87.8424 53.1608Z" fill="#E5E3DC"/>
<path d="M53.0983 5.81783C53.5738 5.90541 54.1117 6.78121 54.4746 6.59354C54.6873 6.49345 55.3379 5.76778 55.3253 5.51756C55.3128 5.31737 54.5121 4.24139 54.3244 4.05372C54.2118 3.94112 53.5112 3.3656 53.4111 3.34057C52.6479 3.12788 51.7471 5.50505 51.4843 6.05555C52.0474 5.94294 52.4727 5.70523 53.0983 5.81783Z" fill="#E5E3DC"/>
<path d="M36.7209 23.5841C36.5082 23.3714 34.9693 24.3222 34.694 24.4974C32.955 25.5859 31.2159 27.2249 30.6028 29.2267C31.6913 27.938 32.8674 26.812 34.2812 25.8862C35.207 25.2731 36.896 24.8852 36.7209 23.5841Z" fill="#E5E3DC"/>
<path d="M63.1204 12.6489C63.5958 12.7115 64.0462 13.212 64.2464 13.6248C64.3715 13.8625 64.2214 14.3255 64.6092 14.338C65.5226 14.3505 66.8112 12.4738 66.2357 11.9983C65.7603 11.598 62.9828 11.3352 63.1204 12.6489Z" fill="#E5E3DC"/>
<path d="M58.9161 5.51775C58.0904 4.20405 55.9509 3.20314 55.9384 5.5678C56.4639 5.4552 57.5774 6.41857 57.8902 6.39355C58.203 6.36853 58.6534 5.73045 58.9161 5.51775Z" fill="#E5E3DC"/>
<path d="M61.719 9.92145C61.181 9.80885 59.7297 11.0099 59.8798 11.6981C60.8307 11.5604 61.5563 11.9608 62.3946 12.2986C62.5197 11.8732 62.7074 11.6605 62.6073 11.1851C62.5573 10.8973 62.0068 9.9715 61.719 9.92145Z" fill="#E5E3DC"/>
<path d="M45.7795 7.75705C45.3041 7.74453 42.6892 8.29503 42.7392 8.84554L42.9644 9.23339L43.3773 9.30846L46.6678 8.45768C46.7804 7.9322 46.1674 7.76956 45.7795 7.75705Z" fill="#E5E3DC"/>
<path d="M51.6596 8.09479C51.6846 8.16985 52.2226 8.89552 52.3102 8.9831C52.4103 9.08319 52.3978 9.0957 52.5604 9.05817L53.3862 7.31908C52.7856 6.63095 51.3343 7.14392 51.6596 8.09479Z" fill="#E5E3DC"/>
<path d="M80.9737 52.8855C80.2355 53.0982 80.5734 54.1492 81.274 54.0366C82.0247 53.924 81.8495 52.6228 80.9737 52.8855Z" fill="#E5E3DC"/>
<path d="M86.4913 53.8489C85.9909 53.3609 85.04 53.9865 85.553 54.6121C86.0409 55.2251 87.0419 54.3869 86.4913 53.8489Z" fill="#E5E3DC"/>
<path d="M83.1507 55.5755L83.989 55.7256C84.5645 54.4245 82.5752 54.1492 83.1507 55.5755Z" fill="#E5E3DC"/>
<path d="M83.6885 52.2978C83.063 52.2227 82.8503 52.9609 83.2006 53.3112C83.7636 53.8993 84.7145 52.4229 83.6885 52.2978Z" fill="#E5E3DC"/>
<path d="M22.4081 35.0068C21.9451 34.6064 21.0068 35.3196 21.6449 35.8326C22.2704 36.333 22.8209 35.3696 22.4081 35.0068Z" fill="#E5E3DC"/>
<path d="M21.0064 37.9972C20.8062 38.1223 20.6185 39.0982 21.5194 38.9355C22.4327 38.7854 21.682 37.5718 21.0064 37.9972Z" fill="#E5E3DC"/>
<path d="M23.1462 37.3213C22.9835 38.3848 24.7852 37.7467 24.072 37.0461C23.7843 36.7583 23.2213 36.8834 23.1462 37.3213Z" fill="#E5E3DC"/>
<path d="M87.0671 57.0644C88.0055 57.202 87.8429 55.8633 86.9671 56.1261C86.4916 56.2637 86.5417 56.9894 87.0671 57.0644Z" fill="#E5E3DC"/>
<path d="M24.397 35.2072C24.9475 35.0195 24.6222 34.2438 24.0717 34.2938C23.321 34.3439 23.6088 35.4699 24.397 35.2072Z" fill="#E5E3DC"/>
<path d="M26.4241 39.0856C25.9737 39.5235 26.7368 40.1991 27.1998 39.7487C27.6252 39.3358 26.9495 38.5851 26.4241 39.0856Z" fill="#E5E3DC"/>
<path d="M26.499 36.7961C26.2988 36.4958 25.2979 36.746 25.6107 37.3716C25.9235 38.0097 26.8994 37.4342 26.499 36.7961Z" fill="#E5E3DC"/>
<path d="M25.0602 39.8864C25.3855 39.3735 24.5472 38.6978 24.1719 39.2984C23.784 39.924 24.8475 40.2242 25.0602 39.8864Z" fill="#E5E3DC"/>
<path d="M85.3275 57.2523C86.1782 57.0271 85.415 55.7509 84.877 56.3765C84.6143 56.6642 84.8896 57.3649 85.3275 57.2523Z" fill="#E5E3DC"/>
<path d="M22.4203 33.6431C22.8958 32.8674 21.2443 32.5671 21.4945 33.4554C21.6071 33.8558 22.2952 33.8433 22.4203 33.6431Z" fill="#E5E3DC"/>
<path d="M19.0672 32.392C18.5417 32.7173 19.0422 33.5306 19.6553 33.1552C19.9931 32.9425 19.6302 32.0417 19.0672 32.392Z" fill="#E5E3DC"/>
<path d="M56.7394 36.7833C56.7394 36.7833 59.4794 40.4116 65.4723 35.7324V35.7199C65.9353 35.4696 67.1864 34.6189 67.5617 34.4437C72.191 32.2542 76.67 34.744 78.9096 38.9353C80.0606 41.0998 80.1983 42.7012 80.1732 45.1284C80.1732 45.3536 80.0231 45.6414 80.0606 45.8166C80.1732 46.2795 80.8238 46.1293 81.1241 45.9667C82.5879 38.9978 76.5074 31.6161 69.2133 32.4919C68.4501 32.5795 66.6359 33.3052 65.5599 34.0558V34.0308C63.3829 35.6448 60.4052 38.7101 56.7394 36.7833Z" fill="#E5E3DC"/>
<path d="M36.4209 78.9095C33.7435 78.947 33.1805 78.9845 32.4923 79.485C32.4923 79.485 33.1304 77.7459 36.2333 77.7334L36.4209 78.9095Z" fill="#E5E3DC"/>
<path d="M32.0418 19.6929C32.2044 20.9941 29.9148 24.3846 29.2142 26.2488C28.5136 28.1005 28.9389 30.0523 28.9389 30.0523C28.9389 30.0523 29.4769 27.8378 31.2786 25.2354C33.0802 22.6331 32.7925 21.0191 32.0418 19.6929Z" fill="#E5E3DC"/>
<path d="M28.914 54.4248C30.6155 58.2158 33.4807 60.718 37.1715 62.3821C32.9051 62.5447 28.7889 58.7412 28.914 54.4248Z" fill="#E5E3DC"/>
<path d="M25.4357 53.5864C26.862 59.7921 31.0283 64.6465 37.3216 66.1354C36.5334 66.1229 35.7326 66.0978 34.9319 65.9727C29.1641 65.1344 25.0354 59.204 25.4357 53.5864Z" fill="#E5E3DC"/>
<path d="M115.271 7.2304V5.6176H142.746V7.2304H130.938V43H126.963V7.2304H115.271ZM146.178 5.6176H150.152V22.84H169.16V5.6176H173.135V43H169.16V24.4528H150.152V43.0576H146.178V5.6176ZM180.039 5.6176H204.001V7.288H184.013V20.0176H200.487V21.6304H184.013V41.3872H204.001V43H180.039V5.6176ZM239.157 43.6912C228.328 43.6912 220.898 35.9152 220.898 24.3376C220.898 12.7024 228.328 4.984 239.157 4.984C249.986 4.984 257.474 12.7024 257.474 24.3376C257.474 35.9152 249.986 43.6912 239.157 43.6912ZM225.16 24.3376C225.16 34.936 230.862 42.0784 239.157 42.0784C247.509 42.0784 253.211 34.936 253.211 24.3376C253.211 13.6816 247.509 6.5968 239.157 6.5968C230.862 6.5968 225.16 13.6816 225.16 24.3376ZM266.41 5.6176L277.873 27.2176L289.393 5.6176H293.54V43H289.565V8.6128L277.354 31.5376H275.569L264.625 10.9744V43.0576H263.127V8.152L261.802 5.6176H266.41Z" fill="#DAD7CD"/>
<path d="M144.514 86V64.544H146.818V83.84H156.322V86H144.514ZM170.512 86.3456C169.014 86.3456 167.613 86.0768 166.307 85.5392C165.021 84.9824 163.888 84.2144 162.909 83.2352C161.93 82.2368 161.162 81.0656 160.605 79.7216C160.048 78.3584 159.77 76.8704 159.77 75.2576C159.77 73.6448 160.048 72.1664 160.605 70.8224C161.162 69.4592 161.93 68.288 162.909 67.3088C163.888 66.3104 165.021 65.5424 166.307 65.0048C167.613 64.4672 169.014 64.1984 170.512 64.1984C172.01 64.1984 173.402 64.4768 174.688 65.0336C175.994 65.5712 177.136 66.3392 178.115 67.3376C179.094 68.3168 179.862 69.4784 180.419 70.8224C180.976 72.1664 181.254 73.6448 181.254 75.2576C181.254 76.8704 180.976 78.3584 180.419 79.7216C179.862 81.0656 179.094 82.2368 178.115 83.2352C177.136 84.2144 175.994 84.9824 174.688 85.5392C173.402 86.0768 172.01 86.3456 170.512 86.3456ZM170.512 84.1856C171.76 84.1856 172.893 83.9552 173.91 83.4944C174.947 83.0336 175.84 82.3904 176.589 81.5648C177.338 80.7392 177.914 79.7888 178.317 78.7136C178.739 77.6384 178.95 76.4864 178.95 75.2576C178.95 74.048 178.739 72.9056 178.317 71.8304C177.914 70.7552 177.338 69.8048 176.589 68.9792C175.84 68.1536 174.947 67.5104 173.91 67.0496C172.893 66.5888 171.76 66.3584 170.512 66.3584C169.264 66.3584 168.122 66.5888 167.085 67.0496C166.067 67.5104 165.184 68.1536 164.435 68.9792C163.686 69.8048 163.101 70.7552 162.678 71.8304C162.275 72.9056 162.074 74.048 162.074 75.2576C162.074 76.4864 162.275 77.6384 162.678 78.7136C163.101 79.7888 163.686 80.7392 164.435 81.5648C165.184 82.3904 166.077 83.0336 167.114 83.4944C168.15 83.9552 169.283 84.1856 170.512 84.1856ZM194.385 86.3456C192.868 86.3456 191.534 86.0288 190.382 85.3952C189.23 84.7616 188.337 83.8976 187.704 82.8032C187.07 81.6896 186.753 80.4224 186.753 79.0016V64.544H189.057V79.0016C189.057 80.0384 189.278 80.9504 189.72 81.7376C190.18 82.5056 190.804 83.1104 191.592 83.552C192.398 83.9744 193.329 84.1856 194.385 84.1856C195.441 84.1856 196.363 83.9744 197.15 83.552C197.956 83.1104 198.58 82.5056 199.022 81.7376C199.483 80.9504 199.713 80.0384 199.713 79.0016V64.544H202.017V79.0016C202.017 80.4224 201.7 81.6896 201.067 82.8032C200.433 83.8976 199.54 84.7616 198.388 85.3952C197.256 86.0288 195.921 86.3456 194.385 86.3456ZM208.157 86V64.544H210.173L222.759 82.6016H221.981V64.544H224.285V86H222.269L209.684 67.8272H210.461V86H208.157ZM240.308 86.3456C238.791 86.3456 237.399 86.0768 236.132 85.5392C234.864 84.9824 233.76 84.2144 232.82 83.2352C231.898 82.2368 231.178 81.0656 230.66 79.7216C230.141 78.3776 229.882 76.8992 229.882 75.2864C229.882 73.6736 230.141 72.1952 230.66 70.8512C231.178 69.5072 231.898 68.336 232.82 67.3376C233.76 66.3392 234.864 65.5712 236.132 65.0336C237.399 64.4768 238.791 64.1984 240.308 64.1984C241.767 64.1984 243.072 64.4576 244.224 64.976C245.396 65.4944 246.375 66.1664 247.162 66.992C247.968 67.7984 248.544 68.6528 248.89 69.5552L246.816 70.5632C246.279 69.2576 245.453 68.2304 244.34 67.4816C243.226 66.7328 241.882 66.3584 240.308 66.3584C238.733 66.3584 237.332 66.7328 236.103 67.4816C234.874 68.2304 233.914 69.2768 233.223 70.6208C232.532 71.9456 232.186 73.5008 232.186 75.2864C232.186 77.0528 232.532 78.608 233.223 79.952C233.914 81.296 234.874 82.3424 236.103 83.0912C237.332 83.8208 238.733 84.1856 240.308 84.1856C241.709 84.1856 242.967 83.8784 244.08 83.264C245.213 82.6496 246.106 81.8144 246.759 80.7584C247.412 79.6832 247.738 78.4544 247.738 77.072V75.8912L248.775 76.928H240.308V74.912H250.042V76.6976C250.042 78.0992 249.792 79.3952 249.293 80.5856C248.794 81.7568 248.103 82.7744 247.22 83.6384C246.336 84.5024 245.3 85.1744 244.109 85.6544C242.938 86.1152 241.671 86.3456 240.308 86.3456ZM255.321 86V64.544H269.145V66.704H257.625V74.1632H268.569V76.3232H257.625V83.84H269.145V86H255.321Z" fill="#DAD7CD"/>
</svg>
