<svg xmlns="http://www.w3.org/2000/svg" width="186" height="60" viewBox="0 0 186 60" fill="none">
<path d="M27.5721 33.9294C27.6894 33.9294 27.7989 33.9215 27.9084 33.9137V37.5029H28.0335V33.9137C28.2681 33.8981 28.5026 33.8668 28.7372 33.8199C29.4801 33.6713 30.1917 33.382 30.8173 32.9754L30.5436 32.5531C30.0353 33.0614 29.4254 33.4367 28.7372 33.64C28.5105 33.7026 28.2759 33.7495 28.0335 33.773V27.4625L32.6079 34.4298H32.7487L37.1433 26.79V34.641C37.9488 33.9059 38.4023 32.8659 38.4023 31.7711V26.313H37.2841L33.2101 33.3898L28.6199 26.313H27.275L27.9005 27.2749V33.7808C27.7911 33.7886 27.6816 33.8043 27.5643 33.8043C27.4392 33.8043 27.3219 33.7964 27.2046 33.7886C24.6085 33.5775 22.9273 31.0439 22.9273 28.2289C22.9273 25.273 24.7649 22.6535 27.5643 22.6535C30.3481 22.6535 32.2013 25.273 32.2013 28.2289C32.2013 28.8857 32.1075 29.5347 31.9276 30.1368L32.6236 31.2081C33.2022 30.3402 33.5463 29.3236 33.5463 28.2289C33.5463 25.0619 30.7156 22.5049 27.5643 22.5049C24.4052 22.5049 21.5823 25.0619 21.5823 28.2289C21.5823 31.2551 24.1862 33.7417 27.1968 33.9215C27.3297 33.9215 27.447 33.9294 27.5721 33.9294Z" fill="#E5E3DC"/>
<path d="M30.3167 0H30.0039C23.584 0 17.6254 2.01746 12.746 5.4581C12.66 5.52066 12.574 5.5754 12.4958 5.63013C4.92637 11.0804 0 19.9635 0 29.9961C0 38.1754 3.28424 45.6041 8.59377 51.0152C14.0441 56.5594 21.6213 60 30.0039 60H30.2385C30.4496 60 30.6686 59.9922 30.8875 59.9844C31.1378 59.9844 31.3958 59.9687 31.646 59.9531C34.1952 59.7811 36.6897 59.1477 38.715 57.7479C39.5204 57.2084 40.2554 56.5359 40.881 55.7305C41.8976 55.8556 42.8985 55.793 43.8603 55.5663H43.8681C46.4095 55.0033 48.7163 53.4081 50.6321 51.6799C51.6252 50.7807 52.5479 49.811 53.3924 48.7867C53.4628 48.7006 53.541 48.6146 53.6035 48.5208C57.615 43.4224 60 36.9868 60 29.9961C60 13.528 46.7457 0.172032 30.3167 0ZM49.2793 51.7738C46.996 53.6817 44.3607 55.1284 41.8897 54.9407C41.4127 54.9016 40.9592 54.6748 40.4822 54.7296C40.3336 54.7765 39.8175 55.5741 39.6377 55.7696C37.8314 57.7479 35.1649 58.6941 32.2716 58.9913C32.2638 58.9834 32.256 58.9834 32.2403 58.9913C31.5835 59.0382 30.9188 59.0695 30.2463 59.0695C29.9648 59.0695 29.6833 59.0773 29.4018 59.0695C21.0192 58.8974 13.5045 55.1831 8.30445 49.3575C3.71432 44.22 0.922716 37.4326 0.922716 29.9961C0.922716 22.9662 3.40936 16.5229 7.56158 11.4949C7.59286 11.4401 7.63978 11.3932 7.68669 11.3463C13.1839 5.02802 21.113 1.36843 29.6833 1.03219C31.0361 0.977453 32.3811 1.01655 33.7104 1.14948C33.7182 1.14948 33.7182 1.14948 33.7261 1.14948C48.0282 2.97928 59.0851 15.1935 59.0851 29.9961C59.0851 38.5273 55.4099 46.2062 49.5608 51.5235C49.467 51.6095 49.3731 51.6877 49.2793 51.7738Z" fill="#E5E3DC"/>
<path d="M52.5402 40.6073L51.8208 40.537C51.8677 44.8377 49.8972 49.4826 45.8231 51.3359C48.8493 48.4661 51.1014 44.0401 49.5844 39.8332L48.8259 39.6377C49.6782 42.1478 49.2012 44.9472 48.1377 47.3166C47.2228 49.3575 45.2367 51.7894 42.8204 51.8676C44.1732 50.7885 44.9317 49.7407 44.3061 47.95C42.7109 43.4068 35.9626 46.3157 32.7878 46.8943C30.6452 47.2853 28.4636 47.3791 26.3053 47.0429C22.982 46.5268 18.1964 44.5875 16.046 41.921C14.0911 39.5048 13.0589 35.3604 14.8418 32.5844C14.5915 32.3967 13.8565 33.5149 13.7548 33.7104C12.3708 36.2049 13.3873 38.7541 14.6072 41.0374C14.6384 41.0921 15.1154 41.7177 14.8105 41.5848C14.7714 41.5691 14.2866 41.1312 14.2084 41.0609C12.3942 39.3171 10.8068 36.3847 10.9476 33.8199C11.018 32.4515 11.5341 31.3723 12.3708 30.3089C12.1596 29.7302 11.2682 30.0821 11.104 30.0039C10.8303 29.8632 10.9554 29.3627 10.3142 29.4331C9.97795 29.4722 9.96231 29.9961 9.91539 30.3089C9.46186 33.1865 10.322 36.7679 11.8547 39.2233C13.2153 41.4049 15.1154 42.7968 17.1798 44.2513L15.6941 43.7117C13.184 42.6874 10.4549 43.7039 10.9554 46.7692C11.1118 47.3244 11.3151 47.6372 11.3151 47.6372C11.3151 47.6372 10.1109 43.8134 17.2893 44.9707C20.5188 46.0029 23.631 47.7545 27.0482 48.1142C29.5739 48.38 32.1075 47.9343 34.5003 47.1524C34.5394 47.3478 34.4612 47.2853 34.3517 47.34C31.521 48.8649 30.3715 50.2255 26.8292 49.5295C25.367 49.248 23.0133 48.1298 21.6448 48.8101C21.4259 48.9196 21.2304 49.0525 21.2226 49.3262H22.763C23.1618 49.3262 24.4521 49.8658 24.9447 49.9987C29.5192 51.242 30.3559 50.1004 33.9842 47.8718C36.1972 46.5112 39.6534 45.2678 42.1323 46.6128C44.2045 47.731 44.267 50.9058 41.8977 51.5783C41.5223 51.6877 41.0297 51.6408 40.7091 51.7347C40.6387 51.7581 40.5683 51.8285 40.584 51.9067C42.8517 53.4784 45.8857 52.5557 47.8953 50.9683C50.9059 48.5834 52.6731 44.4311 52.5402 40.6073Z" fill="#E5E3DC"/>
<path d="M35.3214 49.8423C35.3918 49.9127 35.7124 49.5921 35.8297 49.5608C36.3223 49.4279 36.5882 49.8345 36.4865 50.2959C36.291 51.2186 34.3518 51.9849 33.5229 52.2038C27.6034 53.7599 19.5414 50.3428 14.8496 46.7927C14.4977 46.5268 13.9113 45.9012 13.5907 45.7214C13.489 45.6666 13.3717 45.5884 13.2622 45.6745L13.3013 45.9403C18.3137 50.679 26.0942 54.4246 33.1319 52.8607C35.1963 52.3993 35.8922 52.0162 37.1747 50.3819C37.2216 50.3193 37.1746 50.2411 37.3467 50.288C37.9332 51.9771 35.947 53.1031 34.6489 53.627C27.8927 56.3482 19.1973 52.4072 13.8409 48.2628C13.6297 48.0985 12.6445 47.1836 12.4881 47.2149C12.3473 47.3166 12.3317 47.4339 12.4412 47.559C17.8054 52.3368 25.844 56.5281 33.2257 54.753C35.3683 54.2369 39.2156 52.6261 37.8862 49.7876L37.2763 49.0134C40.3572 50.1316 38.7699 53.1891 36.7758 54.5497C29.9728 59.1946 18.2355 54.3308 12.5663 49.6077C5.63027 43.8368 0.954132 33.859 3.58153 24.796C3.7301 24.2956 4.23838 23.2556 4.27747 22.8568C4.30093 22.6066 4.2071 22.325 4.11326 22.0983L3.87867 22.0279C3.76138 22.0514 3.67536 22.1139 3.61281 22.2078C3.46423 22.4267 3.19836 23.2634 3.10453 23.5684C0.797739 30.6451 2.62753 38.5899 6.85013 44.5328C12.0502 51.8598 22.1688 57.6307 31.3256 57.0364C34.5864 56.8252 39.9584 54.753 39.6066 50.7103C39.3563 48.1064 36.0799 46.9491 35.3214 49.8423Z" fill="#E5E3DC"/>
<path d="M8.14022 15.4125C8.35135 15.2952 9.43046 13.786 9.71197 13.4576C12.8476 9.82928 20.1981 3.67523 25.273 6.59977C28.3227 8.35919 26.0784 11.6747 27.1419 14.482C29.3392 20.2998 35.939 14.912 38.801 19.7758L39.3093 20.8002C39.4422 19.0955 37.9643 17.516 36.3847 17.0859C33.8277 16.3899 31.2081 17.5394 28.917 15.6236C25.5154 12.7695 29.8241 8.17152 25.4529 5.80999C20.0573 2.89327 12.4958 8.86747 9.11768 12.7695C8.86745 13.0588 7.28006 15.0215 7.28006 15.2092C7.26442 15.5611 7.91345 15.5454 8.14022 15.4125Z" fill="#E5E3DC"/>
<path d="M43.3991 6.6936C49.8111 9.57904 54.7062 15.9364 55.8557 22.8959C56.2076 25.015 56.1372 27.0403 55.8792 29.175C55.8792 29.4565 56.4735 29.4018 56.6142 29.2689C56.7628 29.1359 56.841 28.4322 56.8566 28.1976C57.4666 19.7133 52.7591 11.1351 45.4009 6.95164C44.9239 6.67796 42.0619 5.20787 41.71 5.52065C41.6553 5.71614 41.5849 5.92727 41.7804 6.06803C42.0228 6.24788 43.0315 6.52938 43.3991 6.6936Z" fill="#E5E3DC"/>
<path d="M27.6735 42.8985C33.0222 44.4155 39.8409 41.4127 42.9609 36.9556C43.1642 36.6584 44.345 34.7661 44.1026 34.5315C43.9931 34.5393 43.8367 34.4924 43.7429 34.5471C43.6647 34.594 42.914 35.8921 42.742 36.1267C39.8331 40.0756 35.0162 42.9845 29.9647 42.703C28.2287 42.6092 24.3658 41.6708 24.7725 39.3093C24.9054 38.5351 25.5544 38.2302 26.0001 37.6828V37.5264C25.312 36.979 24.1782 38.2927 24.0843 38.9183C23.7559 41.0452 25.922 42.4058 27.6735 42.8985Z" fill="#E5E3DC"/>
<path d="M33.1473 40.8732C40.7167 38.7228 46.2608 29.9648 43.4848 22.2468L42.8202 22.2781C46.034 30.692 39.0355 39.4813 30.8249 41.0296C29.91 41.2016 29.2218 41.1782 28.3069 41.2173C28.2131 41.2251 28.0254 41.1625 28.0489 41.2876C29.7457 41.5691 31.5052 41.3424 33.1473 40.8732Z" fill="#E5E3DC"/>
<path d="M27.7129 39.4891C27.275 39.4578 26.2193 39.0903 25.9847 39.1138C25.2262 39.1998 26.6025 39.755 26.798 39.8019C32.0293 41.1391 38.4023 36.8383 40.6778 32.2794C41.8038 30.0274 42.3277 26.7118 41.7491 24.2487C41.6943 24.0063 41.5849 23.5918 41.3972 23.4354C41.405 23.5762 41.4676 23.6935 41.4754 23.842C41.6005 26.6024 41.3034 29.6677 40.0131 32.1387C37.8784 36.2205 32.4281 39.8488 27.7129 39.4891Z" fill="#E5E3DC"/>
<path d="M25.2028 43.8681C30.6609 47.3244 37.855 44.7126 42.4842 41.0609C43.3991 40.3415 44.2905 39.3093 45.1976 38.6759C45.6355 38.3709 46.003 38.152 46.5739 38.2145C45.2758 36.8852 44.1107 38.7462 43.2349 39.5673C38.9185 43.6335 31.2005 46.6832 25.5938 43.5553C25.3749 43.438 24.4052 42.7186 24.2958 42.789C24.069 43.2034 24.8744 43.6648 25.2028 43.8681Z" fill="#E5E3DC"/>
<path d="M42.2808 7.92129C41.6239 8.43738 42.8907 8.73453 43.266 8.93002C50.2959 12.6209 54.1197 20.1434 53.5567 28.049C53.5723 28.2523 53.8304 28.4009 54.0102 28.2836C54.104 28.1507 54.1431 27.9865 54.1588 27.8301C54.3777 25.6484 53.9085 22.2625 53.2986 20.1434C51.7582 14.8104 47.4965 9.8762 42.2808 7.92129Z" fill="#E5E3DC"/>
<path d="M8.92222 26.8839C8.06989 25.7579 7.56161 24.0688 7.73364 22.6535C7.77274 22.2938 8.14026 21.5822 8.06989 21.332C8.03861 21.2147 7.3583 20.2216 7.23319 20.0652C6.91258 19.6664 6.28701 19.0721 5.77873 18.9626C5.21572 18.8453 4.96549 18.8922 4.87948 19.5022C4.72308 20.6516 5.13753 22.4111 5.63016 23.4589C6.28701 24.8586 7.51469 26.227 8.92222 26.8839Z" fill="#E5E3DC"/>
<path d="M10.0248 27.2436C10.0717 27.314 10.017 27.3765 10.189 27.3374C10.2907 25.9846 11.2056 25.0619 11.8077 23.9672C12.1204 23.3963 12.5114 22.6456 12.2534 22.0123C12.0032 21.3867 11.6356 21.5665 11.2056 21.2616C10.8537 21.0192 10.6973 20.5578 10.3767 20.2841C9.22718 21.3476 8.46868 22.7473 8.78147 24.3503C8.92222 25.0228 9.64944 26.6649 10.0248 27.2436Z" fill="#E5E3DC"/>
<path d="M24.5224 14.0597C24.3034 12.011 22.6066 9.79018 20.3624 10.0091C19.0487 10.1342 16.8826 11.8546 15.8973 12.746C15.6002 13.0119 14.3882 14.1457 14.2474 14.3959C14.1536 14.5523 14.1145 14.7009 14.2943 14.8026L14.5446 14.7713C16.4291 12.9571 21.1209 7.96821 23.1461 12.1674C23.7639 13.4498 23.8577 14.9277 23.3025 16.2492C22.849 17.3361 21.6917 18.251 21.8559 19.5334C22.4346 18.6498 23.3495 18.0555 23.9046 17.1563C24.366 16.4056 24.5302 15.6705 24.6319 14.8026L26.6415 14.3881L26.5242 13.7078L24.5224 14.0597Z" fill="#E5E3DC"/>
<path d="M35.9627 4.82472C35.3918 4.12877 34.9852 3.87854 34.3127 4.61358C33.1789 5.85691 33.0069 7.87437 33.9843 9.25844C35.5091 9.14115 36.7603 7.38173 37.0261 5.98202C37.206 5.03584 37.1278 3.99583 35.9627 4.82472Z" fill="#E5E3DC"/>
<path d="M24.5461 8.5234C20.7458 5.7318 14.6777 10.8771 12.1833 13.6062C11.9487 13.8564 10.9399 14.9824 10.9399 15.217C10.9399 15.5454 11.2762 15.6549 11.5186 15.4829C13.841 12.8868 17.0705 9.36792 20.6128 8.6016C22.3644 8.21844 24.5226 8.70326 25.2577 10.5096C25.375 10.8067 25.4688 11.4479 25.6096 11.6513C25.6878 11.7607 25.7816 11.6747 25.7972 11.6122C25.852 11.3932 25.7972 10.7676 25.7972 10.4861C25.7972 9.86838 25.0466 8.89093 24.5461 8.5234Z" fill="#E5E3DC"/>
<path d="M14.474 17.9617C14.474 17.3674 14.4505 16.6089 13.9032 16.2492C13.4262 16.1553 12.2532 17.516 11.9874 17.9069C11.8075 18.165 10.9004 19.7055 11.1037 19.9088C11.4165 19.9635 11.3931 19.6351 11.6433 19.5178C11.9092 19.3927 12.3158 19.3849 12.5816 19.5178C12.738 19.596 12.871 19.8306 13.0117 19.8306C13.2307 19.8384 13.4027 19.5647 13.8015 19.6351C14.5209 19.768 14.3723 20.5109 15.1152 20.5109C15.5687 20.5109 15.5766 20.331 15.7877 19.9791C16.7417 18.3918 16.7573 16.5072 14.474 17.9617Z" fill="#E5E3DC"/>
<path d="M50.7182 38.715C51.6252 38.4413 52.892 37.1041 52.1257 36.1423C51.7347 35.6497 51.289 36.0328 51.0779 35.9234C50.898 35.8295 50.7964 35.3056 50.6243 35.0945C50.163 34.508 49.3341 34.5627 48.8493 35.0788C47.6372 36.3925 48.3254 39.4422 50.7182 38.715Z" fill="#E5E3DC"/>
<path d="M11.7137 28.6355C12.871 29.0655 14.3723 28.4634 15.1934 27.6111C15.4671 27.3296 16.4915 26.0393 15.6313 25.9768C15.4749 25.969 15.2325 26.0784 15.1465 26.0237C15.0605 25.9768 14.9901 25.7813 14.8728 25.6953C13.5122 24.6396 11.8388 26.0393 11.2523 27.3061C10.9161 28.0412 10.8691 28.3227 11.7137 28.6355Z" fill="#E5E3DC"/>
<path d="M19.2754 26.6258C19.7602 26.1957 21.1365 24.5614 20.6047 23.9046C20.1356 23.3338 18.4934 23.7013 17.8522 23.8108C17.8366 24.0375 17.8679 24.2721 17.8288 24.4989C17.7662 24.8508 17.4612 25.1166 17.4143 25.359C17.2892 25.9299 17.5394 26.1488 17.0312 26.6962C16.6715 27.0794 16.4916 27.3218 16.1632 27.7049C15.9677 27.9317 15.7018 28.0646 15.522 28.307C16.8513 28.2288 18.2823 27.5094 19.2754 26.6258Z" fill="#E5E3DC"/>
<path d="M40.5682 18.2276C40.7715 18.4856 41.444 19.6116 41.5769 19.6898C41.7881 19.8149 42.0617 19.7993 42.1087 19.5413C42.2025 19.0799 40.3649 16.8357 39.9661 16.4212C38.5273 14.912 36.9555 13.9971 34.8286 13.8407C33.3663 13.7313 31.3567 13.8486 31.1143 15.6393C31.5443 15.5141 31.8649 15.1779 32.3185 15.0059C35.3916 13.8173 38.7462 15.8582 40.5682 18.2276Z" fill="#E5E3DC"/>
<path d="M48.4506 32.7799C47.958 32.0761 47.1525 32.9206 46.9649 32.8033C46.5113 32.0214 45.9483 31.8415 45.6981 32.8737C45.4166 34.0388 45.8154 35.6731 46.4175 36.6897C46.5582 36.9243 47.5044 38.1989 47.7781 37.9877C47.4497 37.0572 47.4653 35.9859 47.8172 35.0632C48.0831 34.3438 49.0136 33.5853 48.4506 32.7799Z" fill="#E5E3DC"/>
<path d="M19.948 29.6677C19.2755 29.48 18.5248 29.0734 17.8132 29.0812C17.2033 29.089 16.3275 29.5269 15.6394 29.5895C14.7401 29.6677 13.8487 29.5504 12.9807 29.3705C14.6541 31.3176 18.6343 32.7721 19.948 29.6677Z" fill="#E5E3DC"/>
<path d="M55.9102 36.7053C55.6913 36.6975 55.5427 36.8695 55.4723 36.8539C55.3472 36.8304 54.9328 36.2283 54.4323 36.2752C53.6347 36.3534 53.2124 37.6828 52.7902 38.238C52.2897 38.8948 51.9066 39.0356 51.1872 39.3327C51.1246 39.3562 50.9682 39.3953 51.0386 39.4891C52.6729 40.2554 55.3003 39.5673 56.1135 37.8939C56.309 37.4873 56.5905 36.721 55.9102 36.7053Z" fill="#E5E3DC"/>
<path d="M44.1653 11.1039C43.9073 10.9397 42.8751 10.3219 42.6405 10.3923L42.5154 10.5721C42.5154 10.7676 43.2739 11.0413 43.485 11.1743C46.7536 13.223 49.0526 17.0077 49.9049 20.7298C50.0457 21.3476 50.2021 23.0601 50.4679 23.4667C50.5461 23.584 50.7182 23.6857 50.8042 23.803C50.9684 23.6857 50.9215 23.4902 50.9137 23.3181C50.7416 18.6498 48.1846 13.5905 44.1653 11.1039Z" fill="#E5E3DC"/>
<path d="M9.29741 44.3217C9.40689 44.4468 9.88389 45.1036 10.0481 44.9629L10.0872 44.439C6.60746 40.5526 5.16083 35.548 5.31722 30.3714C5.32504 30.1056 5.45016 29.8319 5.39542 29.5504C5.35632 29.3471 4.85587 29.0499 4.79331 29.4018C4.61346 30.4027 4.70729 32.0292 4.79331 33.077C5.12955 37.2136 6.63092 41.1391 9.29741 44.3217Z" fill="#E5E3DC"/>
<path d="M16.9139 19.987C16.7497 20.1277 16.2571 20.6595 16.1789 20.8315C16.0147 21.2068 16.4213 21.5274 16.4369 21.9262C16.9452 21.9653 17.3831 22.3172 17.4378 22.8333C17.4613 23.0053 17.2971 23.2868 17.516 23.3572C18.298 23.1852 19.4397 22.5049 19.8072 21.762C20.3467 20.6673 19.6899 20.6282 18.7437 20.808C18.9314 20.3545 18.5248 19.377 17.9696 19.4083C17.6959 19.424 17.1251 19.7993 16.9139 19.987Z" fill="#E5E3DC"/>
<path d="M10.4782 16.7731C10.0168 16.8356 9.50073 17.602 9.41471 17.5863C8.98463 17.2266 8.78132 16.4134 8.07756 16.6245C7.63966 16.7575 7.69439 17.993 7.73349 18.3605C7.76477 18.6576 8.40598 20.6516 8.58583 20.6594C9.2896 20.0573 10.1732 19.6429 10.5877 18.7593C10.7675 18.3683 11.3462 16.6558 10.4782 16.7731Z" fill="#E5E3DC"/>
<path d="M7.64779 29.9257C7.60869 29.699 7.35846 29.6833 7.17079 29.7537C6.95966 29.8241 6.90493 30.6608 6.88929 30.9032C6.67034 34.6488 7.84328 39.4031 10.0562 42.4449C10.1814 42.617 10.6192 43.2895 10.8226 43.2425L11.0024 42.9219C9.13352 40.3727 7.91366 37.3074 7.63997 34.1327C7.60087 33.687 7.67125 33.2334 7.56177 32.7877C7.42884 31.9197 7.79636 30.7311 7.64779 29.9257Z" fill="#E5E3DC"/>
<path d="M45.0724 50.288C45.2522 50.3037 45.3382 50.1316 45.4321 50.0143C46.6676 48.4739 48.4973 43.9776 46.8396 42.3667C45.9169 41.4597 44.2278 42.2338 43.6414 43.2034C43.962 43.2034 44.2356 43.0314 44.5797 43.0158C46.433 42.9298 46.7536 44.6735 46.5659 46.128C46.3939 47.5199 45.7605 49.076 45.0724 50.288Z" fill="#E5E3DC"/>
<path d="M37.0183 8.367C36.1112 8.75798 35.7515 9.84491 34.6489 9.78235C35.6889 10.8849 37.9175 10.6738 39.1296 9.94656C39.63 9.64942 40.0836 9.32099 39.6066 8.7658C39.0592 8.14805 37.7377 8.06203 37.0183 8.367Z" fill="#E5E3DC"/>
<path d="M29.6912 19.3536C31.3177 19.7055 33.1866 19.2676 34.3439 20.7768L34.7896 21.7855C35.3448 20.4014 34.0233 19.1346 32.7643 18.8219C31.7556 18.5716 30.6139 18.7358 29.5974 18.5403C28.2368 18.2823 27.1889 17.4925 26.4774 16.3352C26.3913 16.1866 26.1177 15.522 26.0786 15.4985L25.8674 15.522C26.3288 17.5785 27.6347 18.9079 29.6912 19.3536Z" fill="#E5E3DC"/>
<path d="M9.82128 28.5025L9.89166 28.1663C9.18789 27.9943 8.45285 27.6424 7.84292 27.2514C7.3972 26.9621 6.27117 25.8908 5.91929 25.8048C4.67597 25.4763 4.38664 26.3052 5.09041 27.2279C6.17733 28.6433 8.1948 28.8544 9.82128 28.5025Z" fill="#E5E3DC"/>
<path d="M35.0633 11.2915C33.2179 12.4098 30.2386 13.4185 28.1508 13.9737L28.0022 13.4185C28.4557 13.2308 30.2464 12.7304 30.6296 12.5505C31.3803 12.1986 32.0762 11.6434 32.6236 11.0257C32.8425 10.7676 33.4056 9.84492 33.6558 9.798C34.1093 9.71198 34.383 10.361 34.6489 10.6503C34.8209 10.8458 35.3526 11.0648 35.0633 11.2915Z" fill="#E5E3DC"/>
<path d="M30.301 5.0593C30.387 6.98293 31.0908 8.93784 33.2256 9.25844C32.8424 8.60941 32.6235 7.92911 32.4827 7.18624C32.4436 6.98293 32.4905 6.75616 32.4592 6.53721C32.3263 5.77871 31.083 4.90291 30.301 5.0593Z" fill="#E5E3DC"/>
<path d="M49.2246 30.7937C48.5991 30.6608 48.0752 30.606 47.473 30.8641C47.2854 31.1378 48.4036 31.7321 48.5913 31.8806C48.9275 32.1387 49.2403 32.4358 49.5453 32.733C50.0535 32.342 50.4523 31.9197 51.1483 32.2169C51.6253 31.0205 49.9441 28.9639 49.2246 30.7937Z" fill="#E5E3DC"/>
<path d="M54.0807 32.0292C54.2997 30.2229 52.5481 29.4565 51.0076 29.5895C50.9216 29.6598 51.6175 30.4653 51.6957 30.5904C51.9303 30.9814 52.1258 31.4584 52.2196 31.9041C52.8374 31.9588 53.2753 32.3733 53.807 32.5922C53.94 32.5453 54.0651 32.1621 54.0807 32.0292Z" fill="#E5E3DC"/>
<path d="M45.6353 30.5669C45.7838 30.778 46.0575 30.6217 46.167 30.4105C46.902 29.003 46.9802 25.8673 46.7066 24.319C46.6049 23.7404 46.4016 22.4189 45.7526 22.3094C46.3156 24.6396 46.4407 26.7118 45.9402 29.0577C45.8699 29.3862 45.4711 30.3402 45.6353 30.5669Z" fill="#E5E3DC"/>
<path d="M41.397 11.9562C44.0322 13.3325 45.6978 15.7096 46.8864 18.3605C47.0036 18.6185 47.3399 19.6976 47.5276 19.7524C47.7543 19.8227 47.8482 19.7211 47.856 19.5021C47.8716 19.119 47.2852 17.7505 47.0897 17.3361C45.9402 14.9589 43.8836 12.8398 41.4361 11.8154L41.397 11.9562Z" fill="#E5E3DC"/>
<path d="M55.9104 33.3351C55.6836 33.6948 55.449 34.0623 55.1284 34.3516C55.6367 34.7348 55.7462 35.2118 55.5741 35.8139C57.0677 35.5246 57.7167 33.7026 57.1615 32.3889C56.7158 31.3098 56.1762 32.8972 55.9104 33.3351Z" fill="#E5E3DC"/>
<path d="M40.1617 12.9337C40.1382 12.9415 40.0131 13.0431 40.0835 13.0822C41.7022 13.8955 43.0784 15.4594 43.9151 17.0546C44.0793 17.3752 44.658 18.9391 44.7362 19.0095C44.9395 19.1894 45.1975 19.1268 45.2288 18.8219C45.307 18.0399 43.8917 15.7878 43.3443 15.1466C42.8673 14.5914 40.9046 12.7616 40.1617 12.9337Z" fill="#E5E3DC"/>
<path d="M40.3649 9.57904C40.2789 9.66506 40.1303 10.0873 39.9739 10.275C39.3796 10.9475 38.1441 11.2524 37.2761 11.2915C37.6984 11.6512 38.5742 11.706 39.1059 11.6591C39.7237 11.6043 40.8732 11.0804 41.3658 10.6894C42.7029 9.61814 40.8419 9.1255 40.3649 9.57904Z" fill="#E5E3DC"/>
<path d="M24.5457 4.39462C25.0931 4.57447 26.2113 3.91762 26.8447 3.74559C27.8065 3.47972 28.8856 3.34679 29.8787 3.40934C30.1133 3.42498 31.2315 3.77687 31.1063 3.30769C31.0125 2.94799 29.6988 2.82287 29.3782 2.82287C28.1193 2.82287 25.9767 3.28423 24.8428 3.83942C24.5613 3.988 23.9905 4.20695 24.5457 4.39462Z" fill="#E5E3DC"/>
<path d="M39.2235 5.84125C39.247 5.99765 39.505 6.18532 39.5676 6.40427C39.6301 6.62322 39.5363 6.85781 39.7161 7.00638C40.4746 6.37299 41.0377 5.419 40.9438 4.39462C40.4512 4.12876 39.9273 4.13658 39.3799 4.16003C39.5285 4.64485 39.1688 5.45809 39.2235 5.84125Z" fill="#E5E3DC"/>
<path d="M37.3155 4.00366C37.7456 4.50412 37.7377 5.18442 37.7221 5.80999C38.1287 5.63796 38.5823 5.60668 38.7387 5.1375C38.9732 4.4181 38.8716 3.34681 38.1991 2.89327L37.0496 3.71433C37.0027 3.90982 37.1982 3.87073 37.3155 4.00366Z" fill="#E5E3DC"/>
<path d="M54.9015 33.2256C54.9328 33.3351 54.8546 33.3585 55.0501 33.3351L56.3872 31.2863C55.879 30.5982 55.0423 30.3558 54.2212 30.262C54.706 30.8015 54.8702 31.3724 54.8233 32.0996C54.8077 32.2873 54.6825 32.4749 54.6904 32.6157C54.6982 32.6782 54.8546 33.0849 54.9015 33.2256Z" fill="#E5E3DC"/>
<path d="M33.1865 3.63613C33.4836 3.69086 33.8199 4.23824 34.0466 4.12094C34.1796 4.05839 34.5862 3.60485 34.5784 3.44846C34.5705 3.32334 34.0701 2.65085 33.9528 2.53356C33.8824 2.46318 33.4445 2.10348 33.382 2.08784C32.905 1.95491 32.3419 3.44064 32.1777 3.7847C32.5296 3.71432 32.7955 3.56575 33.1865 3.63613Z" fill="#E5E3DC"/>
<path d="M22.9505 14.74C22.8176 14.6071 21.8558 15.2014 21.6837 15.3108C20.5968 15.9911 19.5099 17.0155 19.1267 18.2666C19.807 17.4612 20.5421 16.7575 21.4257 16.1788C22.0043 15.7956 23.06 15.5532 22.9505 14.74Z" fill="#E5E3DC"/>
<path d="M39.4504 7.90564C39.7475 7.94473 40.029 8.25752 40.1541 8.51557C40.2323 8.66414 40.1385 8.95347 40.3809 8.96129C40.9517 8.96911 41.7571 7.79616 41.3974 7.49902C41.1003 7.24879 39.3643 7.08458 39.4504 7.90564Z" fill="#E5E3DC"/>
<path d="M36.8225 3.44846C36.3064 2.6274 34.9692 2.00183 34.9614 3.47974C35.2899 3.40936 35.9858 4.01147 36.1813 3.99583C36.3768 3.98019 36.6583 3.58139 36.8225 3.44846Z" fill="#E5E3DC"/>
<path d="M38.5745 6.20097C38.2382 6.1306 37.3311 6.88128 37.425 7.31136C38.0193 7.22534 38.4728 7.47557 38.9967 7.6867C39.0749 7.42083 39.1922 7.2879 39.1297 6.99075C39.0984 6.8109 38.7543 6.23225 38.5745 6.20097Z" fill="#E5E3DC"/>
<path d="M28.6123 4.84817C28.3151 4.84035 26.6808 5.18441 26.7121 5.52848L26.8529 5.77088L27.1109 5.8178L29.1675 5.28607C29.2379 4.95764 28.8547 4.85599 28.6123 4.84817Z" fill="#E5E3DC"/>
<path d="M32.2871 5.0593C32.3028 5.10622 32.639 5.55976 32.6938 5.6145C32.7563 5.67705 32.7485 5.68487 32.8502 5.66141L33.3662 4.57449C32.9909 4.14441 32.0838 4.46501 32.2871 5.0593Z" fill="#E5E3DC"/>
<path d="M50.6085 33.0536C50.1472 33.1865 50.3583 33.8434 50.7962 33.773C51.2654 33.7026 51.1559 32.8894 50.6085 33.0536Z" fill="#E5E3DC"/>
<path d="M54.057 33.6557C53.7443 33.3507 53.15 33.7417 53.4706 34.1327C53.7755 34.5158 54.4011 33.9919 54.057 33.6557Z" fill="#E5E3DC"/>
<path d="M51.9691 34.7348L52.493 34.8286C52.8528 34.0154 51.6094 33.8434 51.9691 34.7348Z" fill="#E5E3DC"/>
<path d="M52.3054 32.686C51.9144 32.6391 51.7815 33.1005 52.0005 33.3194C52.3523 33.687 52.9466 32.7642 52.3054 32.686Z" fill="#E5E3DC"/>
<path d="M14.0052 21.8793C13.7158 21.6291 13.1294 22.0748 13.5282 22.3954C13.9191 22.7082 14.2632 22.1061 14.0052 21.8793Z" fill="#E5E3DC"/>
<path d="M13.1291 23.7482C13.004 23.8264 12.8867 24.4363 13.4497 24.3347C14.0205 24.2409 13.5513 23.4823 13.1291 23.7482Z" fill="#E5E3DC"/>
<path d="M14.4665 23.3259C14.3648 23.9906 15.4909 23.5918 15.0451 23.1539C14.8653 22.9741 14.5134 23.0523 14.4665 23.3259Z" fill="#E5E3DC"/>
<path d="M54.4171 35.6653C55.0036 35.7513 54.9019 34.9146 54.3545 35.0788C54.0574 35.1649 54.0887 35.6184 54.4171 35.6653Z" fill="#E5E3DC"/>
<path d="M15.2481 22.0044C15.5921 21.8871 15.3888 21.4023 15.0447 21.4336C14.5756 21.4649 14.7554 22.1686 15.2481 22.0044Z" fill="#E5E3DC"/>
<path d="M16.515 24.4285C16.2335 24.7022 16.7105 25.1244 16.9998 24.8429C17.2657 24.5849 16.8434 24.1157 16.515 24.4285Z" fill="#E5E3DC"/>
<path d="M16.562 22.9975C16.4369 22.8099 15.8113 22.9662 16.0068 23.3572C16.2023 23.756 16.8122 23.3963 16.562 22.9975Z" fill="#E5E3DC"/>
<path d="M15.6626 24.929C15.8659 24.6084 15.342 24.1861 15.1074 24.5615C14.865 24.9524 15.5297 25.1401 15.6626 24.929Z" fill="#E5E3DC"/>
<path d="M53.3297 35.7826C53.8615 35.6419 53.3845 34.8443 53.0482 35.2353C52.884 35.4151 53.056 35.853 53.3297 35.7826Z" fill="#E5E3DC"/>
<path d="M14.0126 21.027C14.3098 20.5422 13.2776 20.3545 13.434 20.9097C13.5043 21.1599 13.9344 21.1521 14.0126 21.027Z" fill="#E5E3DC"/>
<path d="M11.917 20.245C11.5885 20.4483 11.9013 20.9566 12.2845 20.722C12.4956 20.5891 12.2688 20.0261 11.917 20.245Z" fill="#E5E3DC"/>
<path d="M35.4622 22.9897C35.4622 22.9897 37.1747 25.2574 40.9203 22.3329V22.325C41.2096 22.1686 41.9915 21.6369 42.2261 21.5274C45.1194 20.159 47.9188 21.7151 49.3185 24.3347C50.0379 25.6875 50.124 26.6884 50.1083 28.2054C50.1083 28.3462 50.0145 28.526 50.0379 28.6355C50.1083 28.9248 50.5149 28.831 50.7026 28.7293C51.6175 24.3738 47.8172 19.7602 43.2583 20.3076C42.7813 20.3623 41.6475 20.8158 40.975 21.285V21.2694C39.6144 22.2781 37.7533 24.1939 35.4622 22.9897Z" fill="#E5E3DC"/>
<path d="M22.763 49.3184C21.0896 49.3419 20.7377 49.3653 20.3076 49.6781C20.3076 49.6781 20.7064 48.5912 22.6457 48.5834L22.763 49.3184Z" fill="#E5E3DC"/>
<path d="M20.0261 12.3081C20.1277 13.1213 18.6967 15.2404 18.2588 16.4056C17.8209 17.5629 18.0868 18.7827 18.0868 18.7827C18.0868 18.7827 18.423 17.3987 19.5491 15.7722C20.6751 14.1457 20.4952 13.137 20.0261 12.3081Z" fill="#E5E3DC"/>
<path d="M18.0713 34.0154C19.1348 36.3847 20.9255 37.9487 23.2323 38.9887C20.5658 39.0903 17.9931 36.7132 18.0713 34.0154Z" fill="#E5E3DC"/>
<path d="M15.8974 33.4915C16.7888 37.37 19.3927 40.404 23.326 41.3346C22.8334 41.3267 22.3329 41.3111 21.8325 41.2329C18.2276 40.709 15.6471 37.0025 15.8974 33.4915Z" fill="#E5E3DC"/>
<path d="M72.1691 4.644V3.636H89.3411V4.644H81.9611V27H79.4771V4.644H72.1691ZM91.4862 3.636H93.9702V14.4H105.85V3.636H108.334V27H105.85V15.408H93.9702V27.036H91.4862V3.636ZM112.649 3.636H127.625V4.68H115.133V12.636H125.429V13.644H115.133V25.992H127.625V27H112.649V3.636ZM149.598 27.432C142.83 27.432 138.186 22.572 138.186 15.336C138.186 8.064 142.83 3.24 149.598 3.24C156.366 3.24 161.046 8.064 161.046 15.336C161.046 22.572 156.366 27.432 149.598 27.432ZM140.85 15.336C140.85 21.96 144.414 26.424 149.598 26.424C154.818 26.424 158.382 21.96 158.382 15.336C158.382 8.676 154.818 4.248 149.598 4.248C144.414 4.248 140.85 8.676 140.85 15.336ZM166.631 3.636L173.795 17.136L180.995 3.636H183.587V27H181.103V5.508L173.471 19.836H172.355L165.515 6.984V27.036H164.579V5.22L163.751 3.636H166.631Z" fill="#DAD7CD"/>
<path d="M90.4461 54V40.59H91.8861V52.65H97.8261V54H90.4461ZM106.695 54.216C105.759 54.216 104.883 54.048 104.067 53.712C103.263 53.364 102.555 52.884 101.943 52.272C101.331 51.648 100.851 50.916 100.503 50.076C100.155 49.224 99.981 48.294 99.981 47.286C99.981 46.278 100.155 45.354 100.503 44.514C100.851 43.662 101.331 42.93 101.943 42.318C102.555 41.694 103.263 41.214 104.067 40.878C104.883 40.542 105.759 40.374 106.695 40.374C107.631 40.374 108.501 40.548 109.305 40.896C110.121 41.232 110.835 41.712 111.447 42.336C112.059 42.948 112.539 43.674 112.887 44.514C113.235 45.354 113.409 46.278 113.409 47.286C113.409 48.294 113.235 49.224 112.887 50.076C112.539 50.916 112.059 51.648 111.447 52.272C110.835 52.884 110.121 53.364 109.305 53.712C108.501 54.048 107.631 54.216 106.695 54.216ZM106.695 52.866C107.475 52.866 108.183 52.722 108.819 52.434C109.467 52.146 110.025 51.744 110.493 51.228C110.961 50.712 111.321 50.118 111.573 49.446C111.837 48.774 111.969 48.054 111.969 47.286C111.969 46.53 111.837 45.816 111.573 45.144C111.321 44.472 110.961 43.878 110.493 43.362C110.025 42.846 109.467 42.444 108.819 42.156C108.183 41.868 107.475 41.724 106.695 41.724C105.915 41.724 105.201 41.868 104.553 42.156C103.917 42.444 103.365 42.846 102.897 43.362C102.429 43.878 102.063 44.472 101.799 45.144C101.547 45.816 101.421 46.53 101.421 47.286C101.421 48.054 101.547 48.774 101.799 49.446C102.063 50.118 102.429 50.712 102.897 51.228C103.365 51.744 103.923 52.146 104.571 52.434C105.219 52.722 105.927 52.866 106.695 52.866ZM121.616 54.216C120.668 54.216 119.834 54.018 119.114 53.622C118.394 53.226 117.836 52.686 117.44 52.002C117.044 51.306 116.846 50.514 116.846 49.626V40.59H118.286V49.626C118.286 50.274 118.424 50.844 118.7 51.336C118.988 51.816 119.378 52.194 119.87 52.47C120.374 52.734 120.956 52.866 121.616 52.866C122.276 52.866 122.852 52.734 123.344 52.47C123.848 52.194 124.238 51.816 124.514 51.336C124.802 50.844 124.946 50.274 124.946 49.626V40.59H126.386V49.626C126.386 50.514 126.188 51.306 125.792 52.002C125.396 52.686 124.838 53.226 124.118 53.622C123.41 54.018 122.576 54.216 121.616 54.216ZM130.223 54V40.59H131.483L139.349 51.876H138.863V40.59H140.303V54H139.043L131.177 42.642H131.663V54H130.223ZM150.317 54.216C149.369 54.216 148.499 54.048 147.707 53.712C146.915 53.364 146.225 52.884 145.637 52.272C145.061 51.648 144.611 50.916 144.287 50.076C143.963 49.236 143.801 48.312 143.801 47.304C143.801 46.296 143.963 45.372 144.287 44.532C144.611 43.692 145.061 42.96 145.637 42.336C146.225 41.712 146.915 41.232 147.707 40.896C148.499 40.548 149.369 40.374 150.317 40.374C151.229 40.374 152.045 40.536 152.765 40.86C153.497 41.184 154.109 41.604 154.601 42.12C155.105 42.624 155.465 43.158 155.681 43.722L154.385 44.352C154.049 43.536 153.533 42.894 152.837 42.426C152.141 41.958 151.301 41.724 150.317 41.724C149.333 41.724 148.457 41.958 147.689 42.426C146.921 42.894 146.321 43.548 145.889 44.388C145.457 45.216 145.241 46.188 145.241 47.304C145.241 48.408 145.457 49.38 145.889 50.22C146.321 51.06 146.921 51.714 147.689 52.182C148.457 52.638 149.333 52.866 150.317 52.866C151.193 52.866 151.979 52.674 152.675 52.29C153.383 51.906 153.941 51.384 154.349 50.724C154.757 50.052 154.961 49.284 154.961 48.42V47.682L155.609 48.33H150.317V47.07H156.401V48.186C156.401 49.062 156.245 49.872 155.933 50.616C155.621 51.348 155.189 51.984 154.637 52.524C154.085 53.064 153.437 53.484 152.693 53.784C151.961 54.072 151.169 54.216 150.317 54.216ZM159.7 54V40.59H168.34V41.94H161.14V46.602H167.98V47.952H161.14V52.65H168.34V54H159.7Z" fill="#DAD7CD"/>
</svg>