<svg xmlns="http://www.w3.org/2000/svg" width="69" height="52" viewBox="0 0 69 52" fill="none">
<path d="M25.5605 6.66016C18.2405 12.6602 14.1006 18.7805 13.1406 25.0205C14.7006 24.3006 16.5608 23.9404 18.7207 23.9404C21.8406 23.9405 24.3006 25.0207 26.1006 27.1807C27.9004 29.2206 28.8008 32.1005 28.8008 35.8203C28.8008 39.7803 27.3605 43.4408 24.4805 46.8008C21.7205 50.0407 18.24 51.6602 14.04 51.6602C9.60036 51.6601 6.1205 50.2205 3.60059 47.3408C1.20059 44.3408 0 40.1402 0 34.7402C3.45207e-05 27.7803 1.5607 21.5404 4.68066 16.0205C7.80066 10.5005 12.4201 5.15997 18.54 0L25.5605 6.66016ZM65.1602 6.66016C57.8402 12.6602 53.7002 18.7805 52.7402 25.0205C54.3002 24.3005 56.1603 23.9404 58.3203 23.9404C61.4403 23.9404 63.9002 25.0207 65.7002 27.1807C67.5002 29.2206 68.4004 32.1004 68.4004 35.8203C68.4004 39.7803 66.9601 43.4408 64.0801 46.8008C61.3202 50.0405 57.8404 51.6601 53.6406 51.6602C49.2007 51.6602 45.7202 50.2207 43.2002 47.3408C40.8002 44.3408 39.6006 40.1402 39.6006 34.7402C39.6006 27.7804 41.1603 21.5404 44.2803 16.0205C47.4003 10.5005 52.0206 5.16 58.1406 0L65.1602 6.66016Z" fill="#FCE48C"/>
</svg>