<svg xmlns="http://www.w3.org/2000/svg" width="32" height="32" viewBox="0 0 32 32" fill="none">
<path d="M24.0413 22.1558L29.7516 27.866L27.866 29.7516L22.1557 24.0414C20.1025 25.684 17.4986 26.6667 14.6666 26.6667C8.04263 26.6667 2.66663 21.2907 2.66663 14.6667C2.66663 8.04269 8.04263 2.66669 14.6666 2.66669C21.2906 2.66669 26.6666 8.04269 26.6666 14.6667C26.6666 17.4987 25.684 20.1026 24.0413 22.1558ZM21.3662 21.1664C22.9966 19.4862 24 17.1942 24 14.6667C24 9.51002 19.8233 5.33335 14.6666 5.33335C9.50996 5.33335 5.33329 9.51002 5.33329 14.6667C5.33329 19.8234 9.50996 24 14.6666 24C17.1941 24 19.4861 22.9967 21.1664 21.3663L21.3662 21.1664Z" fill="#DAD7CD"/>
</svg>
