<svg xmlns="http://www.w3.org/2000/svg" width="40" height="40" viewBox="0 0 40 40" fill="none">
<path d="M18.3819 22.6196C18.4601 22.6196 18.5331 22.6144 18.6061 22.6092V25.002H18.6895V22.6092C18.8459 22.5987 19.0023 22.5779 19.1586 22.5466C19.6539 22.4476 20.1283 22.2547 20.5453 21.9836L20.3629 21.7021C20.024 22.0409 19.6174 22.2912 19.1586 22.4267C19.0075 22.4684 18.8511 22.4997 18.6895 22.5153V18.3084L21.7391 22.9532H21.833L24.7627 17.86V23.094C25.2997 22.6039 25.602 21.9106 25.602 21.1808V17.542H24.8565L22.1405 22.2599L19.0804 17.542H18.1838L18.6008 18.1832V22.5205C18.5279 22.5257 18.4549 22.5362 18.3767 22.5362C18.2933 22.5362 18.2151 22.531 18.1369 22.5257C16.4061 22.385 15.2853 20.696 15.2853 18.8192C15.2853 16.8487 16.5104 15.1023 18.3767 15.1023C20.2325 15.1023 21.468 16.8487 21.468 18.8192C21.468 19.2571 21.4055 19.6898 21.2856 20.0912L21.7495 20.8054C22.1353 20.2268 22.3647 19.5491 22.3647 18.8192C22.3647 16.7079 20.4776 15.0033 18.3767 15.0033C16.2706 15.0033 14.3887 16.7079 14.3887 18.8192C14.3887 20.8367 16.1246 22.4945 18.1317 22.6144C18.2203 22.6144 18.2985 22.6196 18.3819 22.6196Z" fill="#B19879"/>
<path d="M20.2111 0H20.0026C15.7227 0 11.7503 1.34498 8.49733 3.63873C8.43999 3.68044 8.38264 3.71693 8.33051 3.75342C3.28424 7.38694 0 13.309 0 19.9974C0 25.4503 2.1895 30.4027 5.72918 34.0102C9.3627 37.7062 14.4142 40 20.0026 40H20.159C20.2998 40 20.4457 39.9948 20.5917 39.9896C20.7585 39.9896 20.9305 39.9792 21.0974 39.9687C22.7968 39.854 24.4598 39.4318 25.81 38.4986C26.3469 38.1389 26.837 37.6906 27.254 37.1537C27.9317 37.2371 28.599 37.1954 29.2402 37.0442H29.2454C30.9397 36.6688 32.4775 35.6054 33.7547 34.4533C34.4168 33.8538 35.0319 33.2074 35.5949 32.5244C35.6419 32.4671 35.694 32.4097 35.7357 32.3472C38.41 28.9483 40 24.6579 40 19.9974C40 9.01864 31.1638 0.114688 20.2111 0ZM32.8529 34.5158C31.3306 35.7878 29.5738 36.7523 27.9265 36.6271C27.6085 36.6011 27.3061 36.4499 26.9881 36.4864C26.8891 36.5177 26.545 37.0494 26.4251 37.1797C25.2209 38.4986 23.4432 39.1294 21.5144 39.3275C21.5092 39.3223 21.504 39.3223 21.4936 39.3275C21.0557 39.3588 20.6125 39.3796 20.1642 39.3796C19.9765 39.3796 19.7889 39.3849 19.6012 39.3796C14.0128 39.265 9.003 36.7887 5.5363 32.905C2.47622 29.48 0.615144 24.955 0.615144 19.9974C0.615144 15.3108 2.27291 11.0152 5.04105 7.66324C5.06191 7.62674 5.09318 7.59547 5.12446 7.56419C8.78926 3.35201 14.0753 0.91229 19.7889 0.688127C20.6907 0.651636 21.5874 0.677701 22.4736 0.766323C22.4788 0.766323 22.4788 0.766323 22.484 0.766323C32.0188 1.98619 39.3901 10.129 39.3901 19.9974C39.3901 25.6849 36.9399 30.8041 33.0405 34.349C32.978 34.4064 32.9154 34.4585 32.8529 34.5158Z" fill="#B19879"/>
<path d="M35.0265 27.0718L34.5469 27.0249C34.5781 29.8921 33.2644 32.9887 30.5484 34.2242C32.5659 32.311 34.0673 29.3604 33.0559 26.5557L32.5503 26.4254C33.1185 28.0988 32.8005 29.9651 32.0915 31.5447C31.4816 32.9053 30.1574 34.5265 28.5466 34.5787C29.4485 33.8593 29.9541 33.1607 29.5371 31.9669C28.4736 28.9381 23.9747 30.8774 21.8582 31.2631C20.4298 31.5238 18.9754 31.5864 17.5366 31.3622C15.321 31.0181 12.1306 29.7253 10.697 27.9476C9.39372 26.3368 8.7056 23.5738 9.89418 21.7232C9.72736 21.5981 9.23733 22.3436 9.16956 22.4739C8.24684 24.1369 8.92455 25.8363 9.73779 27.3585C9.75864 27.395 10.0766 27.8121 9.87333 27.7235C9.84726 27.713 9.52405 27.4211 9.47192 27.3742C8.26248 26.2117 7.20423 24.2568 7.29807 22.5469C7.34498 21.6346 7.68905 20.9152 8.24685 20.2062C8.10609 19.8204 7.5118 20.055 7.40233 20.0029C7.21987 19.909 7.30328 19.5754 6.8758 19.6223C6.65164 19.6484 6.64122 19.9977 6.60994 20.2062C6.30758 22.1246 6.88102 24.5122 7.90278 26.1491C8.80986 27.6036 10.0766 28.5315 11.4529 29.5011L10.4624 29.1414C8.78901 28.4585 6.96964 29.1362 7.30328 31.1797C7.40754 31.5499 7.54308 31.7584 7.54308 31.7584C7.54308 31.7584 6.74026 29.2092 11.5259 29.9807C13.6789 30.6689 15.7537 31.8366 18.0318 32.0764C19.7156 32.2536 21.4047 31.9565 22.9999 31.4352C23.0259 31.5655 22.9738 31.5238 22.9008 31.5603C21.0137 32.5768 20.2474 33.4839 17.8858 33.02C16.911 32.8323 15.3419 32.0868 14.4296 32.5404C14.2836 32.6133 14.1533 32.702 14.1481 32.8844H15.175C15.4409 32.8844 16.3011 33.2441 16.6295 33.3327C19.6791 34.1616 20.2369 33.4005 22.6558 31.9148C24.1311 31.0077 26.4353 30.1788 28.0879 31.0755C29.4693 31.8209 29.511 33.9375 27.9315 34.3858C27.6812 34.4588 27.3528 34.4275 27.1391 34.49C27.0922 34.5057 27.0452 34.5526 27.0557 34.6047C28.5675 35.6526 30.5901 35.0374 31.9299 33.9792C33.9369 32.3892 35.1151 29.621 35.0265 27.0718Z" fill="#B19879"/>
<path d="M23.5473 33.2278C23.5942 33.2748 23.8079 33.061 23.8861 33.0402C24.2145 32.9516 24.3918 33.2226 24.324 33.5302C24.1937 34.1454 22.9009 34.6562 22.3483 34.8022C18.402 35.8396 13.0273 33.5615 9.89942 31.1947C9.66483 31.0175 9.27384 30.6005 9.06011 30.4806C8.99234 30.4441 8.91414 30.3919 8.84116 30.4493L8.86722 30.6265C12.2088 33.7857 17.3958 36.2827 22.0876 35.2401C23.4639 34.9325 23.9278 34.6771 24.7828 33.5876C24.8141 33.5459 24.7828 33.4937 24.8975 33.525C25.2884 34.651 23.9643 35.4017 23.0989 35.751C18.5948 37.5651 12.7979 34.9377 9.22693 32.1748C9.08617 32.0653 8.42932 31.4554 8.32506 31.4763C8.23123 31.544 8.2208 31.6222 8.29379 31.7056C11.87 34.8908 17.229 37.685 22.1502 36.5017C23.5786 36.1576 26.1434 35.0837 25.2572 33.1914L24.8505 32.6753C26.9045 33.4207 25.8462 35.459 24.5169 36.3661C19.9815 39.4627 12.1567 36.2202 8.37719 33.0715C3.75319 29.2242 0.635762 22.5723 2.38736 16.5303C2.48641 16.1967 2.82526 15.5034 2.85132 15.2375C2.86696 15.0707 2.80441 14.883 2.74185 14.7318L2.58546 14.6849C2.50726 14.7005 2.44992 14.7422 2.40821 14.8048C2.30916 14.9508 2.13192 15.5086 2.06936 15.7119C0.5315 20.4297 1.75136 25.7262 4.56643 29.6882C8.03313 34.5728 14.7789 38.4201 20.8834 38.0239C23.0572 37.8831 26.6386 36.5017 26.404 33.8065C26.2372 32.0705 24.0529 31.299 23.5473 33.2278Z" fill="#B19879"/>
<path d="M5.42714 10.275C5.56789 10.1968 6.2873 9.19067 6.47497 8.97172C8.56542 6.55285 13.4657 2.45015 16.849 4.39985C18.8821 5.57279 17.386 7.78314 18.0949 9.65464C19.5598 13.5332 23.9597 9.94136 25.8676 13.1839L26.2065 13.8668C26.2951 12.7304 25.3099 11.6773 24.2568 11.3906C22.5521 10.9266 20.8057 11.693 19.2783 10.4157C17.0106 8.51297 19.883 5.44768 16.9689 3.87333C13.3719 1.92884 8.33083 5.91164 6.07878 8.51297C5.91196 8.70586 4.8537 10.0143 4.8537 10.1395C4.84327 10.374 5.27596 10.3636 5.42714 10.275Z" fill="#B19879"/>
<path d="M28.9327 4.46228C33.2074 6.38591 36.4708 10.6242 37.2371 15.2638C37.4717 16.6765 37.4248 18.0267 37.2528 19.4499C37.2528 19.6376 37.649 19.6011 37.7428 19.5125C37.8419 19.4238 37.894 18.9547 37.9044 18.7983C38.311 13.1421 35.1728 7.42331 30.2673 4.63431C29.9493 4.45186 28.0413 3.4718 27.8067 3.68032C27.7702 3.81065 27.7233 3.9514 27.8536 4.04524C28.0152 4.16514 28.6877 4.35281 28.9327 4.46228Z" fill="#B19879"/>
<path d="M18.4492 28.5992C22.0149 29.6106 26.5608 27.6087 28.6408 24.6373C28.7763 24.4392 29.5635 23.1776 29.4019 23.0212C29.3289 23.0264 29.2246 22.9951 29.1621 23.0316C29.11 23.0629 28.6095 23.9283 28.4948 24.0847C26.5555 26.7173 23.3443 28.6566 19.9766 28.4689C18.8193 28.4063 16.2441 27.7808 16.5151 26.2064C16.6038 25.6903 17.0364 25.487 17.3336 25.1221V25.0178C16.8748 24.6529 16.1189 25.5287 16.0564 25.9457C15.8374 27.3637 17.2815 28.2708 18.4492 28.5992Z" fill="#B19879"/>
<path d="M22.0985 27.2486C27.1448 25.815 30.8409 19.9764 28.9902 14.8311L28.5471 14.8519C30.6897 20.4612 26.024 26.3207 20.5502 27.3529C19.9403 27.4676 19.4815 27.4519 18.8716 27.478C18.8091 27.4832 18.6839 27.4415 18.6996 27.5249C19.8308 27.7126 21.0038 27.5614 22.0985 27.2486Z" fill="#B19879"/>
<path d="M18.4747 26.3262C18.1828 26.3053 17.479 26.0603 17.3227 26.076C16.817 26.1333 17.7345 26.5034 17.8648 26.5347C21.3524 27.4261 25.601 24.5589 27.118 21.5197C27.8687 20.0184 28.218 17.808 27.8322 16.1659C27.7957 16.0043 27.7228 15.728 27.5976 15.6237C27.6029 15.7176 27.6446 15.7958 27.6498 15.8948C27.7332 17.735 27.5351 19.7785 26.6749 21.4259C25.2518 24.1471 21.6182 26.566 18.4747 26.3262Z" fill="#B19879"/>
<path d="M16.8021 29.2457C20.4408 31.5498 25.2368 29.8087 28.323 27.3742C28.9329 26.8945 29.5272 26.2064 30.1319 25.7842C30.4238 25.5809 30.6689 25.4349 31.0494 25.4766C30.184 24.5904 29.4073 25.8311 28.8234 26.3785C25.9458 29.0893 20.8005 31.1224 17.0627 29.0371C16.9167 28.9589 16.2703 28.4793 16.1973 28.5262C16.0462 28.8025 16.5831 29.1101 16.8021 29.2457Z" fill="#B19879"/>
<path d="M28.1883 5.28061C27.7504 5.62467 28.5949 5.82277 28.8452 5.9531C33.5317 8.41367 36.0809 13.4287 35.7056 18.6991C35.716 18.8346 35.888 18.9337 36.0079 18.8555C36.0705 18.7669 36.0966 18.6574 36.107 18.5531C36.253 17.0987 35.9402 14.8414 35.5336 13.4287C34.5066 9.87334 31.6654 6.58388 28.1883 5.28061Z" fill="#B19879"/>
<path d="M5.94799 17.9224C5.37976 17.1718 5.04091 16.0457 5.1556 15.1022C5.18166 14.8624 5.42668 14.388 5.37976 14.2212C5.35891 14.143 4.90537 13.4809 4.82196 13.3766C4.60822 13.1108 4.19118 12.7146 3.85233 12.6416C3.47698 12.5634 3.31017 12.5947 3.25282 13.0013C3.14856 13.7676 3.42485 14.9406 3.75328 15.6391C4.19118 16.5723 5.00963 17.4845 5.94799 17.9224Z" fill="#B19879"/>
<path d="M6.68368 18.1624C6.71496 18.2094 6.67847 18.2511 6.79315 18.225C6.86092 17.3231 7.47086 16.708 7.87226 15.9782C8.08079 15.5976 8.34144 15.0971 8.16941 14.6749C8.00259 14.2578 7.75758 14.3777 7.47086 14.1744C7.23627 14.0128 7.13201 13.7053 6.91827 13.5228C6.15194 14.2318 5.64628 15.1649 5.8548 16.2336C5.94863 16.6819 6.43345 17.7767 6.68368 18.1624Z" fill="#B19879"/>
<path d="M16.3481 9.37315C16.2021 8.00732 15.0709 6.5268 13.5747 6.67277C12.6989 6.75618 11.2549 7.90306 10.5981 8.49735C10.4 8.67459 9.59194 9.43049 9.49811 9.59731C9.43555 9.70157 9.40949 9.80062 9.52939 9.86839L9.69621 9.84754C10.9526 8.6381 14.0804 5.31215 15.4306 8.11158C15.8424 8.96653 15.905 9.9518 15.5349 10.8328C15.2325 11.5574 14.461 12.1674 14.5704 13.0223C14.9562 12.4332 15.5661 12.037 15.9363 11.4375C16.2438 10.9371 16.3533 10.447 16.4211 9.86839L17.7609 9.5921L17.6827 9.13856L16.3481 9.37315Z" fill="#B19879"/>
<path d="M23.9751 3.21654C23.5946 2.75257 23.3235 2.58575 22.8752 3.07578C22.1193 3.90466 22.0046 5.24964 22.6562 6.17236C23.6728 6.09416 24.5069 4.92122 24.6841 3.98807C24.804 3.35729 24.7519 2.66395 23.9751 3.21654Z" fill="#B19879"/>
<path d="M16.3637 5.6825C13.8302 3.82142 9.78482 7.25163 8.12185 9.071C7.96546 9.23782 7.29297 9.9885 7.29297 10.1449C7.29297 10.3638 7.51713 10.4368 7.67874 10.3221C9.22702 8.5914 11.38 6.24551 13.7416 5.73463C14.9093 5.47919 16.3481 5.8024 16.8381 7.00662C16.9163 7.20472 16.9789 7.63219 17.0727 7.76773C17.1248 7.84071 17.1874 7.78337 17.1978 7.74166C17.2343 7.5957 17.1978 7.17865 17.1978 6.99098C17.1978 6.57915 16.6974 5.92751 16.3637 5.6825Z" fill="#B19879"/>
<path d="M9.64933 11.9742C9.64933 11.578 9.63369 11.0723 9.26878 10.8325C8.95078 10.77 8.16882 11.677 7.99157 11.9377C7.87167 12.1097 7.26695 13.1367 7.40249 13.2722C7.61102 13.3087 7.59538 13.0898 7.7622 13.0116C7.93944 12.9282 8.21052 12.923 8.38776 13.0116C8.49203 13.0637 8.58065 13.2201 8.67449 13.2201C8.82045 13.2253 8.93514 13.0429 9.20101 13.0898C9.68061 13.1784 9.58156 13.6737 10.0768 13.6737C10.3792 13.6737 10.3844 13.5538 10.5251 13.3192C11.1611 12.2609 11.1716 11.0046 9.64933 11.9742Z" fill="#B19879"/>
<path d="M33.8126 25.8098C34.4173 25.6274 35.2618 24.7359 34.751 24.0947C34.4903 23.7663 34.1932 24.0217 34.0524 23.9488C33.9325 23.8862 33.8647 23.5369 33.75 23.3962C33.4425 23.0052 32.8899 23.0417 32.5667 23.3857C31.7586 24.2615 32.2174 26.2947 33.8126 25.8098Z" fill="#B19879"/>
<path d="M7.80895 19.0902C8.58048 19.3769 9.58139 18.9755 10.1288 18.4073C10.3112 18.2196 10.9941 17.3594 10.4207 17.3177C10.3164 17.3125 10.1548 17.3855 10.0975 17.349C10.0401 17.3177 9.99323 17.1874 9.91503 17.1301C9.00795 16.4263 7.89236 17.3594 7.50137 18.204C7.27721 18.694 7.24593 18.8817 7.80895 19.0902Z" fill="#B19879"/>
<path d="M12.8499 17.7509C13.1731 17.4642 14.0907 16.3747 13.7362 15.9368C13.4234 15.5562 12.3286 15.8012 11.9012 15.8742C11.8907 16.0254 11.9116 16.1818 11.8855 16.333C11.8438 16.5676 11.6405 16.7448 11.6092 16.9064C11.5258 17.287 11.6926 17.4329 11.3538 17.7978C11.114 18.0533 10.9941 18.2149 10.7751 18.4703C10.6448 18.6215 10.4676 18.7101 10.3477 18.8717C11.2339 18.8196 12.1879 18.34 12.8499 17.7509Z" fill="#B19879"/>
<path d="M27.0468 12.1517C27.1823 12.3237 27.6306 13.0744 27.7193 13.1266C27.86 13.21 28.0425 13.1995 28.0737 13.0275C28.1363 12.7199 26.9112 11.2238 26.6454 10.9475C25.6861 9.94137 24.6383 9.33144 23.2204 9.22717C22.2455 9.15419 20.9057 9.23239 20.7441 10.4262C21.0309 10.3428 21.2446 10.1186 21.547 10.0039C23.5957 9.21154 25.8321 10.5722 27.0468 12.1517Z" fill="#B19879"/>
<path d="M32.3007 21.8533C31.9723 21.3842 31.4354 21.9472 31.3102 21.869C31.0079 21.3477 30.6325 21.2278 30.4657 21.9159C30.278 22.6926 30.5439 23.7822 30.9453 24.4599C31.0392 24.6163 31.6699 25.466 31.8524 25.3252C31.6334 24.7049 31.6439 23.9907 31.8785 23.3755C32.0557 22.8959 32.6761 22.3903 32.3007 21.8533Z" fill="#B19879"/>
<path d="M13.2992 19.7784C12.8508 19.6533 12.3504 19.3822 11.876 19.3874C11.4694 19.3926 10.8855 19.6846 10.4267 19.7263C9.82724 19.7784 9.23295 19.7002 8.6543 19.5803C9.7699 20.8784 12.4234 21.848 13.2992 19.7784Z" fill="#B19879"/>
<path d="M37.2733 24.4701C37.1273 24.4649 37.0283 24.5796 36.9814 24.5691C36.898 24.5535 36.6217 24.1521 36.288 24.1834C35.7563 24.2355 35.4748 25.1217 35.1933 25.4919C34.8597 25.9298 34.6042 26.0236 34.1246 26.2217C34.0829 26.2373 33.9786 26.2634 34.0256 26.326C35.1151 26.8368 36.8667 26.3781 37.4089 25.2625C37.5392 24.9914 37.7269 24.4805 37.2733 24.4701Z" fill="#B19879"/>
<path d="M29.4437 7.4026C29.2717 7.29312 28.5836 6.88129 28.4272 6.92821L28.3438 7.04811C28.3438 7.17844 28.8494 7.36089 28.9902 7.44951C31.1692 8.81534 32.7019 11.3385 33.2701 13.8199C33.364 14.2317 33.4682 15.3734 33.6455 15.6445C33.6976 15.7227 33.8123 15.7905 33.8696 15.8686C33.9791 15.7905 33.9478 15.6601 33.9426 15.5454C33.8279 12.4332 32.1232 9.06036 29.4437 7.4026Z" fill="#B19879"/>
<path d="M6.19811 29.5481C6.2711 29.6315 6.5891 30.0694 6.69857 29.9756L6.72464 29.6263C4.40481 27.0354 3.44039 23.699 3.54465 20.248C3.54987 20.0707 3.63328 19.8883 3.59678 19.7006C3.57072 19.565 3.23708 19.3669 3.19538 19.6015C3.07548 20.2688 3.13803 21.3531 3.19538 22.0517C3.41954 24.8094 4.42045 27.4264 6.19811 29.5481Z" fill="#B19879"/>
<path d="M11.2758 13.3247C11.1663 13.4186 10.8379 13.7731 10.7858 13.8877C10.6763 14.138 10.9474 14.3517 10.9578 14.6176C11.2966 14.6436 11.5886 14.8782 11.6251 15.2223C11.6407 15.337 11.5312 15.5247 11.6772 15.5716C12.1985 15.4569 12.9596 15.0033 13.2046 14.5081C13.5643 13.7783 13.1264 13.7522 12.4957 13.8721C12.6208 13.5697 12.3497 12.9181 11.9796 12.939C11.7971 12.9494 11.4165 13.1996 11.2758 13.3247Z" fill="#B19879"/>
<path d="M6.98562 11.1819C6.67805 11.2236 6.33398 11.7345 6.27664 11.7241C5.98992 11.4843 5.85438 10.9421 5.3852 11.0829C5.09327 11.1715 5.12976 11.9952 5.15582 12.2402C5.17668 12.4383 5.60415 13.7676 5.72405 13.7728C6.19323 13.3714 6.78231 13.0951 7.0586 12.5061C7.1785 12.2454 7.56427 11.1037 6.98562 11.1819Z" fill="#B19879"/>
<path d="M5.09918 19.9506C5.07311 19.7994 4.90629 19.789 4.78118 19.8359C4.64043 19.8828 4.60393 20.4406 4.59351 20.6022C4.44754 23.0993 5.22951 26.2689 6.70481 28.2967C6.78822 28.4114 7.08015 28.8598 7.21569 28.8285L7.33559 28.6147C6.08967 26.9153 5.27642 24.8717 5.09397 22.7552C5.0679 22.4581 5.11482 22.1557 5.04183 21.8586C4.95321 21.2799 5.19823 20.4875 5.09918 19.9506Z" fill="#B19879"/>
<path d="M30.0477 33.5252C30.1676 33.5357 30.225 33.421 30.2875 33.3428C31.1112 32.3158 32.3311 29.3183 31.2259 28.2444C30.6108 27.6397 29.4847 28.1558 29.0938 28.8022C29.3075 28.8022 29.4899 28.6875 29.7193 28.6771C30.9548 28.6197 31.1686 29.7822 31.0434 30.7519C30.9288 31.6798 30.5065 32.7172 30.0477 33.5252Z" fill="#B19879"/>
<path d="M24.6792 5.57809C24.0745 5.83874 23.8347 6.56336 23.0996 6.52166C23.7929 7.2567 25.2787 7.11595 26.0867 6.63113C26.4203 6.43303 26.7227 6.21408 26.4047 5.84396C26.0398 5.43212 25.1588 5.37478 24.6792 5.57809Z" fill="#B19879"/>
<path d="M19.7943 12.9028C20.8786 13.1373 22.1246 12.8454 22.8961 13.8515L23.1932 14.524C23.5634 13.6013 22.6824 12.7568 21.8431 12.5483C21.1706 12.3814 20.4095 12.4909 19.7318 12.3606C18.8247 12.1886 18.1261 11.662 17.6517 10.8905C17.5944 10.7915 17.4119 10.3483 17.3859 10.3327L17.2451 10.3483C17.5527 11.7194 18.4233 12.6056 19.7943 12.9028Z" fill="#B19879"/>
<path d="M6.54801 19.0017L6.59493 18.7775C6.12575 18.6628 5.63572 18.4282 5.2291 18.1676C4.93195 17.9747 4.18127 17.2605 3.94668 17.2032C3.1178 16.9842 2.92492 17.5368 3.39409 18.1519C4.11871 19.0955 5.46369 19.2363 6.54801 19.0017Z" fill="#B19879"/>
<path d="M23.3754 7.52759C22.1451 8.27306 20.1589 8.94555 18.767 9.31568L18.668 8.94555C18.9703 8.82044 20.1641 8.4868 20.4196 8.3669C20.92 8.13231 21.384 7.76218 21.7489 7.35035C21.8949 7.17831 22.2702 6.56317 22.437 6.53189C22.7394 6.47455 22.9218 6.90723 23.0991 7.10012C23.2138 7.23045 23.5683 7.37641 23.3754 7.52759Z" fill="#B19879"/>
<path d="M20.2012 3.37289C20.2585 4.65531 20.7277 5.95858 22.1509 6.17232C21.8954 5.73963 21.7495 5.28609 21.6556 4.79085C21.6296 4.65531 21.6608 4.50413 21.64 4.35817C21.5514 3.8525 20.7225 3.26863 20.2012 3.37289Z" fill="#B19879"/>
<path d="M32.8166 20.5292C32.3995 20.4406 32.0503 20.4041 31.6489 20.5761C31.5237 20.7586 32.2692 21.1547 32.3943 21.2538C32.6185 21.4258 32.827 21.6239 33.0303 21.822C33.3692 21.5614 33.635 21.2799 34.099 21.478C34.417 20.6804 33.2962 19.3093 32.8166 20.5292Z" fill="#B19879"/>
<path d="M36.0536 21.3524C36.1996 20.1482 35.0319 19.6373 34.0049 19.7259C33.9476 19.7729 34.4115 20.3098 34.4637 20.3932C34.62 20.6539 34.7504 20.9719 34.8129 21.269C35.2248 21.3055 35.5167 21.5818 35.8712 21.7278C35.9598 21.6965 36.0432 21.4411 36.0536 21.3524Z" fill="#B19879"/>
<path d="M30.4237 20.3781C30.5227 20.5188 30.7052 20.4146 30.7782 20.2738C31.2682 19.3354 31.3203 17.245 31.1379 16.2128C31.0701 15.827 30.9346 14.946 30.5019 14.873C30.8772 16.4265 30.9606 17.808 30.627 19.3719C30.5801 19.5909 30.3142 20.2269 30.4237 20.3781Z" fill="#B19879"/>
<path d="M27.5977 7.97079C29.3545 8.88829 30.4649 10.4731 31.2572 12.2403C31.3354 12.4123 31.5596 13.1317 31.6847 13.1682C31.8359 13.2152 31.8985 13.1474 31.9037 13.0014C31.9141 12.746 31.5231 11.8337 31.3928 11.5574C30.6265 9.97261 29.2554 8.55987 27.6237 7.87695L27.5977 7.97079Z" fill="#B19879"/>
<path d="M37.2733 22.2235C37.1221 22.4633 36.9657 22.7083 36.752 22.9012C37.0908 23.1567 37.1638 23.4747 37.0491 23.8761C38.0448 23.6832 38.4775 22.4685 38.1074 21.5927C37.8102 20.8733 37.4505 21.9316 37.2733 22.2235Z" fill="#B19879"/>
<path d="M26.7753 8.62217C26.7596 8.62738 26.6762 8.69515 26.7231 8.72122C27.8023 9.26338 28.7198 10.306 29.2776 11.3695C29.387 11.5832 29.7728 12.6258 29.8249 12.6727C29.9605 12.7926 30.1325 12.7509 30.1534 12.5476C30.2055 12.0263 29.2619 10.5249 28.897 10.0975C28.579 9.72734 27.2705 8.50748 26.7753 8.62217Z" fill="#B19879"/>
<path d="M26.9098 6.38644C26.8524 6.44379 26.7534 6.72529 26.6491 6.85041C26.2529 7.29873 25.4292 7.50204 24.8506 7.52811C25.1321 7.76791 25.716 7.8044 26.0704 7.77312C26.4823 7.73663 27.2486 7.38735 27.577 7.1267C28.4685 6.41251 27.2278 6.08408 26.9098 6.38644Z" fill="#B19879"/>
<path d="M16.3649 2.92967C16.7298 3.04957 17.4753 2.61167 17.8976 2.49698C18.5388 2.31974 19.2582 2.23111 19.9203 2.27282C20.0766 2.28324 20.8221 2.51783 20.7387 2.20505C20.6761 1.96524 19.8004 1.88184 19.5866 1.88184C18.7473 1.88184 17.3189 2.18941 16.563 2.55954C16.3754 2.65859 15.9948 2.80455 16.3649 2.92967Z" fill="#B19879"/>
<path d="M26.1503 3.8942C26.1659 3.99846 26.338 4.12357 26.3797 4.26954C26.4214 4.41551 26.3588 4.5719 26.4787 4.67095C26.9844 4.24869 27.3597 3.61269 27.2972 2.92978C26.9688 2.75253 26.6195 2.75775 26.2546 2.77338C26.3536 3.0966 26.1138 3.63876 26.1503 3.8942Z" fill="#B19879"/>
<path d="M24.8773 2.66897C25.164 3.00261 25.1588 3.45614 25.1484 3.87319C25.4195 3.7585 25.7218 3.73765 25.8261 3.42487C25.9825 2.94526 25.9147 2.23107 25.4664 1.92871L24.7001 2.47608C24.6688 2.60641 24.7991 2.58035 24.8773 2.66897Z" fill="#B19879"/>
<path d="M36.601 22.1506C36.6219 22.2235 36.5697 22.2392 36.7001 22.2235L37.5915 20.8577C37.2526 20.399 36.6948 20.2374 36.1475 20.1748C36.4707 20.5345 36.5801 20.9151 36.5489 21.3999C36.5384 21.525 36.455 21.6501 36.4602 21.7439C36.4655 21.7856 36.5697 22.0567 36.601 22.1506Z" fill="#B19879"/>
<path d="M22.1246 2.42386C22.3227 2.46035 22.5469 2.82527 22.6981 2.74707C22.7867 2.70537 23.0578 2.40301 23.0526 2.29875C23.0474 2.21534 22.7137 1.76701 22.6355 1.68882C22.5886 1.6419 22.2967 1.4021 22.255 1.39167C21.937 1.30305 21.5616 2.29353 21.4521 2.52291C21.6867 2.47599 21.864 2.37694 22.1246 2.42386Z" fill="#B19879"/>
<path d="M15.3012 9.82666C15.2125 9.73804 14.5713 10.1342 14.4566 10.2072C13.732 10.6608 13.0074 11.3437 12.752 12.1778C13.2055 11.6408 13.6955 11.1716 14.2846 10.7859C14.6704 10.5304 15.3741 10.3688 15.3012 9.82666Z" fill="#B19879"/>
<path d="M26.3009 5.27019C26.499 5.29625 26.6867 5.50478 26.7701 5.67681C26.8222 5.77586 26.7596 5.96874 26.9212 5.97396C27.3018 5.97917 27.8387 5.19721 27.5989 4.99911C27.4008 4.83229 26.2435 4.72282 26.3009 5.27019Z" fill="#B19879"/>
<path d="M24.5483 2.29919C24.2043 1.75181 23.3128 1.33477 23.3076 2.32004C23.5266 2.27312 23.9905 2.67453 24.1209 2.6641C24.2512 2.65368 24.4389 2.38781 24.5483 2.29919Z" fill="#B19879"/>
<path d="M25.7161 4.13394C25.492 4.08702 24.8873 4.58748 24.9498 4.8742C25.346 4.81685 25.6484 4.98367 25.9977 5.12442C26.0498 4.94718 26.128 4.85856 26.0863 4.66046C26.0654 4.54056 25.8361 4.15479 25.7161 4.13394Z" fill="#B19879"/>
<path d="M19.0747 3.23187C18.8766 3.22666 17.7871 3.45603 17.8079 3.68541L17.9017 3.84701L18.0738 3.87829L19.4448 3.5238C19.4917 3.30485 19.2363 3.23708 19.0747 3.23187Z" fill="#B19879"/>
<path d="M21.5254 3.37311C21.5358 3.40439 21.76 3.70675 21.7965 3.74324C21.8382 3.78495 21.833 3.79016 21.9008 3.77452L22.2448 3.0499C21.9946 2.76318 21.3899 2.97692 21.5254 3.37311Z" fill="#B19879"/>
<path d="M33.7393 22.0354C33.4318 22.124 33.5725 22.5619 33.8645 22.515C34.1772 22.4681 34.1043 21.9259 33.7393 22.0354Z" fill="#B19879"/>
<path d="M36.0384 22.437C35.8298 22.2337 35.4336 22.4943 35.6474 22.755C35.8507 23.0104 36.2677 22.6612 36.0384 22.437Z" fill="#B19879"/>
<path d="M34.6476 23.1566L34.9968 23.2191C35.2366 22.677 34.4078 22.5623 34.6476 23.1566Z" fill="#B19879"/>
<path d="M34.8701 21.7906C34.6095 21.7594 34.5208 22.0669 34.6668 22.2129C34.9014 22.4579 35.2976 21.8428 34.8701 21.7906Z" fill="#B19879"/>
<path d="M9.33645 14.5866C9.14357 14.4198 8.75258 14.7169 9.01845 14.9307C9.27911 15.1392 9.50848 14.7378 9.33645 14.5866Z" fill="#B19879"/>
<path d="M8.75272 15.8318C8.66931 15.8839 8.59111 16.2905 8.96645 16.2227C9.34701 16.1602 9.03422 15.6545 8.75272 15.8318Z" fill="#B19879"/>
<path d="M9.644 15.551C9.57623 15.9941 10.3269 15.7283 10.0298 15.4363C9.90987 15.3164 9.67528 15.3686 9.644 15.551Z" fill="#B19879"/>
<path d="M36.2777 23.777C36.6687 23.8343 36.6009 23.2765 36.236 23.386C36.0379 23.4434 36.0588 23.7457 36.2777 23.777Z" fill="#B19879"/>
<path d="M10.1652 14.6696C10.3946 14.5914 10.259 14.2682 10.0297 14.2891C9.71688 14.3099 9.83679 14.7791 10.1652 14.6696Z" fill="#B19879"/>
<path d="M11.0103 16.2854C10.8226 16.4678 11.1406 16.7494 11.3335 16.5617C11.5108 16.3897 11.2293 16.0769 11.0103 16.2854Z" fill="#B19879"/>
<path d="M11.0416 15.3314C10.9582 15.2063 10.5412 15.3106 10.6715 15.5712C10.8018 15.8371 11.2085 15.5973 11.0416 15.3314Z" fill="#B19879"/>
<path d="M10.4424 16.6194C10.5779 16.4056 10.2286 16.1241 10.0723 16.3744C9.91065 16.635 10.3538 16.7601 10.4424 16.6194Z" fill="#B19879"/>
<path d="M35.5527 23.8551C35.9072 23.7612 35.5892 23.2295 35.365 23.4902C35.2555 23.6101 35.3702 23.902 35.5527 23.8551Z" fill="#B19879"/>
<path d="M9.34191 14.0181C9.54 13.6949 8.85188 13.5698 8.95614 13.9399C9.00306 14.1068 9.28978 14.1015 9.34191 14.0181Z" fill="#B19879"/>
<path d="M7.94545 13.4969C7.7265 13.6324 7.93503 13.9713 8.19047 13.8149C8.33122 13.7263 8.18004 13.3509 7.94545 13.4969Z" fill="#B19879"/>
<path d="M23.6426 15.3265C23.6426 15.3265 24.7842 16.8383 27.2813 14.8886V14.8834C27.4742 14.7791 27.9955 14.4246 28.1519 14.3516C30.0807 13.4393 31.947 14.4767 32.8802 16.2231C33.3598 17.125 33.4171 17.7923 33.4067 18.8036C33.4067 18.8974 33.3441 19.0173 33.3598 19.0903C33.4067 19.2832 33.6778 19.2206 33.8029 19.1529C34.4128 16.2492 31.8793 13.1735 28.84 13.5384C28.522 13.5749 27.7661 13.8772 27.3178 14.19V14.1796C26.4107 14.8521 25.17 16.1293 23.6426 15.3265Z" fill="#B19879"/>
</svg>
